<mxfile host="app.diagrams.net" agent="Mozilla/5.0 (Windows NT 10.0; Win64; x64) AppleWebKit/537.36 (KHTML, like Gecko) Chrome/134.0.0.0 Safari/537.36" version="26.1.1">
  <diagram name="PÃ¡gina-1" id="eXA-_df5YrpUZNFOm5GK">
    <mxGraphModel dx="1120" dy="426" grid="1" gridSize="10" guides="1" tooltips="1" connect="1" arrows="1" fold="1" page="1" pageScale="1" pageWidth="827" pageHeight="1169" math="0" shadow="0">
      <root>
        <mxCell id="0" />
        <mxCell id="1" parent="0" />
        <mxCell id="eMzSvwGJKEWoqzO3pUmx-1" value="" style="shape=image;verticalLabelPosition=bottom;labelBackgroundColor=default;verticalAlign=top;aspect=fixed;imageAspect=0;image=data:image/png,iVBORw0KGgoAAAANSUhEUgAAArcAAABpCAYAAAAgNgsBAAAAAXNSR0IArs4c6QAAAARnQU1BAACxjwv8YQUAAAAJcEhZcwAADsMAAA7DAcdvqGQAAIW+SURBVHhe7Z0JXFRV+8d/M8wOwoCCKMqm4i6SiAuKS5qU5FamIqavln8zM63c3hI1zS2zzDCllMyl3EpNzTfJBUoxTBEQ1EiB3FDAhUW24fmfOzMwDIxzZ0B9y/d++4xx7z33nOc823nmzr0zImJAQEBAQEBAQEBA4AlArP+/gICAgICAgICAwD+emlduNZfw/fK9sBs/Ff0bVql9i9Jx9Ntt+Pn8Pcg9AjB4xPNo72RZbVyWvAUL1scjz+Q1YjEa9n0TcwZ56Lf/lyjB71FzsflsOdqMWohXuyj0+60kLwXfr/kc246dw9V75VC6NEPnZ/+F1//VA40l+jaWUJ6DuC/ex0c7E3CzXI3Woz/A2vHt2P48XM8CGjaqJ7wbEhAQEBAQEPh7wxW3lWhy6Nh73Ugt86eF58r0Oxn5cbSwhxPJnNvTM0MHUQ/veiT3eIk2/lmljRnu736ZnMXgSlsTLwm1mnFC3/J/jQLaMsyWRJBTyIY7+n1Wkn+c5nVxIFZ0GutVJCWPkZsp3TITaSk6/Dp52oBEYltydmtKTy9PodunN9DrQR7U6d14KtW3ExAQEBAQEBD4u1J5Ia74r8NYMao7Bi7/HQVceVRJOf7aNA8fnuuMj0+cxn++24PY099hgmw3PvjsBEr0rSzBxm0IlnyzHdu3V319i0/G+OhbCFjLnT0rseq3exB7j0DE0VRcuZqG45Gj0UJShoyd8/HJccstdO/iH7iuEUE58DNcuJKJ6BnNkLxpKdbFXLPKzgICAgICAgIC/y10xW35X1g3dig+uTEAEVGvw6faR9m2gVOwesMSjG6mP2DnDa+GIuTfu6e9TGgpIltv9Bw2HMOHV329gAHtnbQyfD2hK/y7TsDq7Yvxom9DKGW2cOv6f9iSnIwtU3rB014GuWNLPBt+ENfLuR6LsP/t7vAPGIyFW9djUk8P1JPJUb91CObu/wsa7ah38f0b3eDf5SUsjHgb3V2UsPMYjg3pGpRl7kP4EF80UkkhtXNDx2Hh2JdRpj0LKEDihkno29IZKokYEmV9tAh6BZFn8vTHmcg3j2LpCH+4O8ggFkugbNACvSZuQGKBvkF1ytKxe/azaFVfDpmqMfzDPsPZ/GoaLMvEvvAh8G2kglRqB7eOwxC+LwMVUhlTjsLcXBSyLiSNfNGrSyu4NW6GbuMXY+GUIXj+2fawu5evb1uMtN3zMLKrFxwVUsgc3NH5pQU4oJ1vGVIiRuDZpSdRyrZKjn+Afl1CsWTpeLz2TSbTYxn+/Gosug2ZhX+P6MJ0+TK+vKTX7t7p6OHvj65jN+CydlcOdr0RCP/Oz2BeTBGnJBxdOgL+7g6QiTk9NkCLXhOxQa+ku9+/gW7+XfDSwgi83d0FSjsPDN+QbqUeBAQEBAQEBAT06C7gFlB66iXKY3+V/jaH2imr3ZZQQWkWnTv2PUVMDaLG9bvR+3EF+gPmqbgtwabh0zR9xUpaubLKa9VWOpmjISpLo+WBUoJIRnK7xuQ/6EXq62NHYohIYWdH9h49aMggf2okFRFsvGjK4SLWcwF9PVjOzpGTyrYeeXQfTEN6epGtCCSqF0hLE7kP0rMpMphrw/qVsXPZlG28p9CROyfoXT8ViURScu0UQkOCvEglEpGy47/pOJtWcRzTAxtL4tyRBo4cTS/2bk71xCKS+rxJR7hpa7JpR2gjstGeP5hCRz1Pfi4S1p+KnllzldiMqlFMpxf4szGYbCpPChw8hHp6cbckcO8PKm5LuE8n3vXTyiF17UQhQ4LISyUikbIj/ZsTygRl55ZRD1s2L5GYlG6daOD4mfThxoOUdLPqTQQauvHdv8iLzUckbUgdnx1Kz/m5kpSNI/OZSD9kFVPyJ0OorVs9rb5t1O7UxvdFen/RcPJxljMZmQ0aNqf2zy2ida83Iwmb44DPr7Fe79OBCW5kw+YgqjeYvsphQ93bQaMaiEmsHkabmF2zd4RSIxvdfAaHjqLn/VzY+SJSPbOGrjIlZUcGk5z1L5PLdLqw8aYpR+5YrQcBAQEBAQEBAQ7je24Z5orbsvMf0/M+XuRqJ6dGQW/R9vP39UfMY/aeW6l+rIriFlLq+N5p4krX+/snUGPuHlBFT1rxBydPFitUlawIktHTn11j2/riFmJq+OImbbFEmuu0ZbgrK9Ik1GJ6LCsp9cUtK6BUnWdRdNqfdOpsOt3eNZrJxIqnTuF0hhtMk0mRz6lJLHahsO/y6M6GEFKwgtH5mYV06MJtKivLpJ8iltEnX+ylRK4O1dygk9s/p4+WbaHTXL1VlktHprUhKRvX561f2LjVKD5Kb3jbEMQN6cXNXGHIibqZXmwoZrLpi9u8XTTaWcwK0E4UrhOKMiOfI7VYTC5h32nffNSklNK+nULdG+mLQ/1LpGxKT8/eR5mc2kqT6H1/dlzsSM+svqCTrfgP+myAI4lZ0d9p/lnWi4auffY0yZie1CO2M81qG1HsdB+SMJu0199ze/+n/6OmNmJSv7CFcovjaGZriW5McWOasO8+3T/wCrmxYtZ+UBRlaVhRfXI7ff7RMtqiUxLlHplGbaQgic9b9AsTRFfccgV/Z5oVnUZ/njpL6bdrowcBAQEBAQEBgSr33FqCTctp2HvhEq6mH8Zkm414efhCnLTiZkyxSx9MXbocy5dXeS19E/1cWVlWgdgBHfxbgxU8EDvVhwM7ZOPmh87uNmyPPRo0UIFrXVpSzLXWIZKhU/BANOZmI3bFc8GdIBOVITMlBYabCCR46qWJ6N3MG506uOFyQjLulItga38fp7ZGIWrjT8hWOkJcfhuJpy9AETgAPdXArZ/mon8rFzTweQGrzhSjYeceaOvAuhM3RMCzvdDc5hRWDO2MFi6u6LsqBaWszistLtFWmEbcPY+LVzUQSZ/CgOcaae8HEbsG4xk/qe44o+yPBCTfKYfI1h73T21FVNRG/JSthKO4HLcTT+OCyc/kJWg2YjV+vXwZ8XsisWhaGJ7p0BCyor/w8/IwvLLuEhv7BE4kl7L3DV3w4igfyLjTZM0x8oWukDKJk0+cwG1tX/wouoegf0MR7v16CMcuHMMvaQTX7oHwEd/EidjfceKnY8gqt0XgwAFoIBajYcCz6NXcBqdWDEXnFi5w7bsKKUwUKi1GSRUlSZ56CRN7N4N3pw5wu1wbPQgICAgICAgIsPpK/3+rENfvjnemPw+HC9GI/lN376UliNV+eGn6DMyYUeX1Vhi6Vv1KMZEccrm+2GXFkfaIXImKL8kSs301IYhEhgJZIpVoC2Aq16BMe28uQ2QDJ2cXcCUyd69qcRFXgBLun9uN1atWYdWq1diWZo+2vu3RxJYVVj6Tse3wJoSP648OjWTIuxyP/V+GI7THM1j0O6voNalYNTgQQ2d8ih8uStBm0BS8PcSHlZpsKLFBlgrKy8tRzoo5bkzDl6/JIJOKtLJylBcXaQs+un8Ou1dzMq3C6m1psG/ri/ZNbFkf+oYVsEL8eOQcvPHKeCw77oBOg17Fux9vwn/OpmLP/7WApPwuYg8cRXlZGdMD61gsg1xb2eqQyaRMv0we7XH9Tj5seyOkb31W9R/Dd6t/RqKmHrq/Og29XAlpMVHY9HM6NMquCHm2Ietbg9RVgxE4dAY+/eEiJG0GYcrbQ3T3dIvElfNmG7BxcoaLzjjW60FAQEBAQEBAQI8FxW0hDrzZAZ6DPsdfVYqK+3l5KBYpYauqWcg9dKoUriahMiQe/1V/lbYYCQmpKCUbuHh5Q105QzEreis2JPBs5g4Z61bZ7V0cOp3AzjmJr2aNwKh/TcYbQ9vg1i/f4Jvoy2g0ZhPOXM3BteQDmNPdDshPxM8x11Catgffxt4GXEbhq4QT2BO1DC+1kukLNkPBWoFY7Q0vZ1a9lZ3HmdOFup2F8YhPKWPlpQ6JZzO464TCu4dOM5kScPKrWRgx6l+Y/MZQtK9SmGoRy5F9Igpr1m/E8uUbkVZxRZNVfyWl3DVkwEYiYWO3RqsmNqCSBMTE3NW1ASt8f0lgRaQEHh18Uf8BnlChekNBboc+Ib2hpnR8u/EICmR+6NX3afTtVg9lpzZh87kyyLuE4Dk31qEmDXu+jcVtuGDUVwk4sScKy15qpdU7R1WziiVcoa3Daj0ICAgICAgICOh5QElTFQV8O3oj/z8fYc7mVOSXa3A7YQPefP8A0OslPN+E66IMF36MxLqdp5Br5qqaJmMjwjq0QqtWxq8OE77Rt6gtGlz5eiIGvbYQS2a+hAmf/wGNtBleCO2pvb1BR5VKik3bZdBoBDcQ4e7+WRg68X18OG8swl59F3PeXY+EUimQthPhs+bijbDhmLzwc3y790fEZRSxarER2rRzgU09B9hLRaDsn/FZ+FIsY4XxuM90tyXcLyxADTXIeyJ0eDNIyzMQNWkEZixbgunDJmD95fJKycQugzA6uAFEd/dj1tCJeP/DeRgb9irenfMu1ieUaq8KG6NCv1f/hXYKQu5/pqGrbz+8GDoCz3f3w8gN6dCIXfDsS8+wsbtj/L86wbb8L2wc/xxemb8MC14diAlf/QVy6o03/q+b7laFGohha8fdBsL0e2Q9Ply9Fxc1gLpfCHrZc7eGMJla90Tvxg4I6tMZ8rIS9qZCBv9nB6Ip5xaienCwl0JE2fj5s3AsXcYK1HGf6W5LuF+IgipKMrKO1XoQEBAQEBAQENCjv/e2EpMPlJVdob3v9CBXmZikCjlJRHJy6zOb9l2p+E6APPpqkJykneaT9gsKqmH+RxxAsn5rDA+U2bjRqz9yDxERFZ+cTW0lIEnb2XRS+xTUfdr9sjOJIaOglZfZdsUDZVIKGPkv8lOLtQ9VieTu9Nzy46T7WYSKb0uwpWFbqj5pr6HrP75HfZsq9A9iicjGoR2NjUrRPsxGmqu0f3YfaqLQfcMC9xIp3emZeT/TTe2071DMvJ7kLOGOc98w0JHGzx1H7aQg6VOm9UB3TtCHAz1IwWpiiCRUv/NrFP4y98CW4UccNNd/pPf6NtW14ca0caB2Y6MoRacSExTTH9umUR93FYn153DySNRtaOjSo3pZGaXptHvWM9Ssno1uviIx2TULofd/vqF9uI3TR80HyoiKToSTvz330BuTpd6L9E0+26m5QV8OrMf6sSHP1w9r9VWWsog6s7mLpF1ocarBd+7EzKOezhKdXWzU1HH8XBrXjtlZ+hTNZ0qq+LYE22FbKsfksF4PAgICAgICAgJENX9+1wxFWak4eyEbYtc28PWp/4CrfY+TQmwa4oSX9wCDv87BrpAbOH3uJlTN/dDW1cKfsi27jUtnU3ClyBaeHTrAvZ7xxeyyO5eRdC4T90RqeLRpC0911euG5chLP4uzV8rRpL0fPB0suBCOYmSlnEHafVd08PNEteH0lOH2pbNIuVIEW88O6OBuwc/elufjWmoK/rx1H2IHN7Rq0xz1DZetKynP+wvnzmUgT9EEbdt7wkF/n6s5irNScPriXSZLe7RramfJ5X4jyvPScfbsFZQ3aQ8/Twcrzq+FHgQEBAQEBAT+p7GquP37UbW4zcXuMSr9fgEBAQEBAQEBgf9F/vEXwkRiG9jY2MDEFxQICAgICAgICAj8j/EPv3IrICAgICAgICAgYEC4hVFAQEBAQEBAQOCJQShuBQQEBAQEBAQEnhiE4lZAQEBAQEBAQOCJQShuBQQEBAQEBAQEnhiE4lZAQEBAQEBAQOCJQShuBQQEBAQEBAQEnhiE4lZAQEBAQEBAQOCJQShuBQQEBAQEBAQEnhiE4lZAQEBAQEBAQOCJQShuBQQEBAQEBAQEnhiE4lZAQEBAQEBAQOCJQShuBQQEBAQEBAQEnhiE4lZAQEBAQEBAQOCJQShuBQQEBAQEBAQEnhiE4lZAQEBAQEBAQOCJQShuBQQEBAQEBAQEnhiE4lZAQEBAQEBAQOCJ4bEUt5qMvVjyzvvYlabR7zFQ8nsUZr3zGWLu6HcI/HMozkRSag7K9Zu1oxiZSanIqVsnAhVoLmPP4hlYdSRHv+NJ5S5iI2bg/Z0X9dtPJsWZSUh9aMGhweU9izFj1RH9Ng93YxEx433svFgzbwOFOLFuBuZuPaffFnjo/M/EsmnuxkZgxvs79VuPl8IT6zBj7lb9loD1POz8YGXuYjye4vb6L/h69Vc4+leZfo+Bsgv7ELF6J07fE6qbfxQs8X4+xB8vb82sQ3HLHPbzIfB/eSsyBfM/HDTXELMxAjtOPeHvFsvzkbArAlFHruh3PHloLn+OIf4vY+tDCw4NrsVsRMSOU/pt85TnJ2BXRBSOXKmZt4ESZP72I346m6XfFnjo/K/EsknKkZ+wCxFRlhczD5OSzN/w409n9VsC1vOw84N1uYtDuC1BoHZQPm7eyq/jVVtC/s1byBcKWwGBGlD+Tdz62waHGiPWJ+Pksr76bQGBJwf1iPVIPrlMvyVgPf/9/PD3Km7vfo83eoZhxZalGN7RFSqpHE4tgzF7byar23WU3zyGj8b2QksXW0htJFDU90Hf1zcjtVjfwBTlWTi6PBQBTe0hkyjg3GoApn+TiiL94bvfv4GeYUsRNX8I2jZQQGbbBN1e+wapyZvxWk8P1JPJ4OgzEB/E3Da0H7UE6+cNhI+jHHK1F3q+EolTd7WHgdydmNwzFHPmvoDWTrZw8puJI4WcGEexPDQATe1lkCic0WrAdHyTWikFTn42FoEtnGHLxnNw98fwRdG4oV/bajVvlCHzwEKMCPCAWi6F0rktnn9vHzL1yiy5vBfhQ/3Q2E4KidIFrYOnY2sKE5TDnC3Kr2HzpJfxxflipEWFIXDsBqRrcrFzck+EzpmLF1o7wdbJDzOPsAL42EcY26slXGylsGG6r+/TF69vTkUxK4uvbZ6El784j+K0KIQFjsWGdE2t5slnj9ydk9EzdA7mvtAaTrZO8JvJXQ0oweW94Rjq1xh2UgmULq0RPH0rKqbPfayS/PUU9PVxgkJmhybdXkHEiknoMfxT7VGTfZbfxLGPxqJXSxfYSm2YjevDp+/r2FwhvF6nS6PmY0jbBqxfW9bva8wHkrH5tZ7wqCeDzNEHAz+IwW2t3cvN6E9PYTI2TX0aPk7Mbx2aod+cQ7hJ+mMcJZexN3wo/BrbQSpRwqV1MKZvTWGz4zBlM62jmo+Xk59hbGALONsyeR3c4T98EaIrHNWIAhx+rx+6j99odGW+5OQShPR8DduyzBdutfN5HdbGNIcl8WC57Rhm9XgX37/RE2ErtmDp8I5wVUkhd2qJ4Nl7tfFZfm0zJr38Bc4XpyEqLBBjN6Szc/h8tjrMhzdNxdNaH3ZAs35zcMjIOTgRzeUkc3Dyd0f/+TG6La2+V2DL0uHo6KqCVO6ElsGzsbci2TAKk7/GlL4+cFLIYNekG16JWIFJPYbj0+SyR5Izzfu+BfDFcw3M5du6x7J18cDG2zYJgYOWIb5Ev4vJl/jxMARO+Fq7ZYnNzMZEDXjswZNX+LDOV/n1bS6Pcbrp3n++9m8Os77LW7dYYPuqML/bNikQg5bFs4jXU5aIj4cFYsLXf2k3eW1nte/WxXam1pHrRvnBetvz5a5yZB1djtCAprCXsVhwboUB01l+r9ohPQaKT8ygVjIvmnK4SL/HQMGWYWQr60UfZ2iIsiMpWKEgO6+nac6moxQft5cWBTcmaaNxtCePa51N20NdSdFiJH16MJ6SkuJo74dDyVOqpqGbcrT91aSUkpYHkdqxE01cc4Dizhyn7z4YTF6q5jTpwG1ti+zIYJJLleQxYD7tOn6GYtYMJw+pPdV370yvroum3+J20czualJ0W2poL1NQg44T6PNDx+nY1jnUx1VK7v/aTZwUmhtrqJ9MTCrfibQpNpZ2bI+hm8VJtDxITY6dJtKaA3F05vh39MFgL1I1n0ScGKW//Zva27aisZGH6UzyaTr40VBylzWhVw7kcyPWYt5M72cWUoCdA/m9spYOxZ+iw5Hj2RhqGhBxiSk+lma1V5EDm8Pq/ccpLnoDTQ90JpnneNp9k88WeZS4exEN9ZRS08HzKHJ3At3W3KA1/WQkVvnSxE2xFLtjO8Wc/5ZCXRXUYuSndDA+iZJYHx8O9SSpeihxYucl7qZF3HbTwTQvcjcl3K7dPM3bQ0M31vQjmVhFvhM3UWzsDtoec5NNfxa1VzlQxwmraf/xOIreMJ0CnWXkOX43cdPPi36DfOQNqMfbG+lIXAxtCw+mpsymktYz2Yim+8zeHkquihY08tODFJ+URHF7P9TqSD10k9YvtDqVS0npMYDm7zpOZ2LW0HAPKdnXd6fOr66j6N/iaNfM7qRWdKOl58tY++1m9UeUT4ff9CF5gx709tdH6cTRzTSrtytJRFIKXJ7GjhdQ7Kz2pHLoSBNW76fjcdG0YXogOcs8afzum6QxZbObxebjpfQ3+nd7W2o1NpIOn0mm0wc/oqHuMmryygEmTU1yt42gBsrutIybj5YiOvJGM7Lr8wldqthlEh5f0FyhT/soyXPyz/r2xlgb0xbFgzW248072RQZrCCFnRc9PWcTHY1n81sUTI2ljWgcl+zyEmn3Im6+TWnwvEjanXCb12erk3/4Tb0Pf01HTxylzbN6k6tERNLA5boGpeZzkubKp9RH6UmTf66Ztyvkdxm7R7fF9K1Q2JHX03No09F45vuLKLixlBqN0x1nAUVv+MipQY+3aeOROIrZFk7BTZnvSVrTzLjiR5AzeXxfJ5VZeOO5GmbzbZ1j2drcqKErn/YhpedkMpivmH55y4eUevvz2owvJqph3h7867AxBvm18PhqDfj0zZPHtLpxGavtis93tbnBXN3Ca/tqVMltBtP9Qm/5KPW+wG87a323TrYzuY7crJIfrLU9f+4qTVpOQWpH6jRxDR2IO0PHv/uABnupqPmkA1TR49+vuJXLKGjl5crkU3x0KjVTdKZFKWzB0GTRya2rKOpYleRUHEPTWiio86IUMrlWFkXTax4K6rrkfJXj2bT5BSeyHxRFN7ktbiGUBdLyNH2LokM0yV1KHpMO0X3tDg1d++xpUjSaoN3Stpd3ocXnKnpkx78MIbX987Q+S6NL1HIF9Yu4WilnUfRr5KHoSksqF3lG9mZ6wcmeBkXdpPu7QsmpXk9adPqO7pyydPppXQTtSWbRUZt5s0R2dGozknd4l06x+NORTz8vGk0TPjtJeTtGUX1lN1qSajhbc20DDVKrqO/qDNLw2aI0keZ3UlKH904z12VoHVxOin4RdFV/gibrJG1dFUXHqiTC4php1KKiD3Zm4vxOpOzwHp3mOqnVPPnsUaotROWKfhRRIRjl0Y5R9UnZbQkZps/O2TCI1Kq+tDojh74Z7kT1+kcQ55Y6cmjbKBeSVilujfvUUNbJrbQq6liVQqOYYqa1IEXnRaSdrl6nXILSDVtEhya5k9RjEh3SORqzwWf0tKIRTdh3n19/ebsozFlJQR9V9MfOv7qOnrXXjcGMTKPqK6nbklSD7jTXaMMgNan6rqaM0po2442X+7so1Kke9Vx0mu5ozymj9J/WUcSeZKZVE9zbTWMbyanT/ESdnxT8RJM8HCh47RWDjU3B5wuWFLdWxLSl8WCp7fjzDlccykkWtJIuV0yw+ChNbaabH0dp4nzqpOxA72mDg89nq2szj3aFOZMy6COqUAFzDlr3rD3J9AsEX06ytriVy4JopWEy2vzD+T7H7W+Gs/zWnyKqyJmzbRS5SKsUtw8zZ/L5fnV11cCCeDbCfL6tcyxbnRstK27N2Yw3JvT7KjBrDwvWYWOMi1s+X6gOr7558hinm4rils93K/L6g9ZK/nWwGhYWtw+2nbW+W0fbmVj7ueOV+cFq2/PlriKKfs2DFF2XkLE7vEBO9oOowh0ez20JIhFEKEe58SdiOrgCmx1lTXSI1PBu7lp5v4RYrUY9URlKStjJYhcEjBgD/7u7sGTWZLw8rB/82wxGRJoG5eXlrJ+aaK4lIOl6Gc6vHQbfdu3QTvvqhfmxhbh/8RzS9Nf9RfbN4ONmo99QwU4pQSOPppBqd4ihUikh0hgerLDxCkLv5vr27LhL1wA0LzmP5Iv6NiJHeHg46eehwbWEJFwvO4+1w3z1MrBXr/mILbyPi+fSIO7zMsa4/465/o3RxLc/xsz+HnkBwzGwrV2t5o3yXJxLuQqHpwLQVqbfB1v0fXczvnz9KVxKOo+Cpt3Q07tiDtwwQQhso8GFxBSUcjvM2cIkIjh6eMBJf4LYJQAjxvjj7q4lmDX5ZQzr5482gyOQpmG+YMoZajNPPXz2EDl6wKNCsLJLSDpfgKbdesIwfXZOUCDaaC4gMSkViamF8OgcgMYVk4ca3bq21fuDDqM+ufMDRmCM/13sWjILk18ehn7+bTA4Ig0aJnvldEX2aObjBt2wIqjslJA08kBTfcdilQpKkQZlGk4d5vVXlp6M1Dw3+Pk31ffHndMdXVtItH+XXUrC+YKm6NbTu/I4p+OgwDbQXEhEis7IRjbjjRdxH7w8xh2/z/VH4ya+6D9mNr7PC8DwgW3BPLUm9fpjZIgLknZ+gzPMFAVHt2Hfvd4YMaRRpV+ZpA6+UIHlMV1mYTxYbjvL8o4Iau/mcK10ITXU9UQoK6n8MNIAn8/qjGmgLB3JqXlw8/NH04r2TKfdu7aAzjv4c5IJKcwiUnujuWEyUKvrQVTG9VKGPxJTUejRGQGGgIK6W1e0NQ6oh5YzLfN9c1gYzxWYzbcBbOi6xTIne13jwRTmbGZRTFRBYcYelq7DprHeV3nXHoWlecxS333wWmn1OmghD7adlb7LqLvtjNeRqlhte77cpbmGhKTrKDu/FsN8K/prh17zY1F4/yLO6TvUR86jRcwWESUKkHevRkbAvbv3UCZSQmXLtMIdFtnAxhBLWirqXpRfw47xPTFm2320CQpCp/ZBGPfC8zjx7ixc0DepQXExc3x7dAqdgbGtjTsW12uFZnoNiKRSo8KFQ8RkeRAiBZtTVUPaSFhSIuas+m1uHpJKyZkYTOH2nRA6YyyMxRCjXqtmkDi64JMTZ/Dst1uwa/9POPzlTGxZtQJD1sZgxzgFvrN23iz1cIusxEZq0F8VSrhFXSI1dgAms4TtKC/X6JKlOVuYRMTaSyrblF/bgfE9x2Db/TYICuqE9kHj8MLzJ/DurAdIXRv76uGzh4hNxGCOEuimb+z+InaOhHsTptH5KXGJQPuXaYz7LMe1HePRc8w23G8ThKBO7RE07gU8f+JdGE1XxPyspqMZFuAq8OqPGVjD/IezWSUiBRRyvVAlrNBiMzKeJhtLZ2TopmlsM/54cYTLJydw5tlvsWXXfvx0+EvM3LIKK4asRQybf5V1UI8KfUKHoOnGXfg27h0Ebf8Rxf0/wqCGJrJgVergCxVYE9OWxYPltrMk7yRrdV/t7EpDVMcynzVQBg33BsnYOaBQyCuH4M1JsPzJZA4uHoxnU20yxC3m+r9N8RBz5jcdLPF9c1gYz5WYz7d1juXaxkO1eXLFVNVd5mxmUUxUxXHAA+3xbXfL1uEHwe+rxvCvPY4YYCaPOehbVWKJ7xpPq1KTVq+Deoz1y8Yn4z0Ptp21vsuoo+0SuNiquo5UxcIazABf7iqGzh1CMWNsa2MdiOuhlb5DnhXm4SBp2hweirtIiE9mk6zKPRyPOwdq3AwtbPW7zFB+ZQfWbMtG31XxOPWfb/HFinBMCWmIUu5rxB7geTaNvOCuKkChQzeEjhmDMdrXaAzwa4aWHZqbfKdhCZrM8zifr99g5Ccn45KNN1pWvNM2wgaNvNyhKiiEQ7dQvQzsNXoA/Jq1RIfmatyO/xardt7AUxMWIHL3CaRdTcTKXvk4sHk/rmVaP2+I68PT3R65aRcMN4Uzp0n98jWMnncQHkweyZVkJFc+/cIoTETSH0ATT68aRUFNuKvx5ijHlR1rsC27L1bFn8J/vv0CK8KnIKRhKaqKXXnFnlEb+1ZglT0kHvByl+AKa2M8/ST8gSbwbN4a7VsrkXEqvoru7iE+PrXG1YpKyq9gx5ptyO67CvGn/oNvv1iB8CkhaFh6j0tL7D9r4defxKMFvOTXkXIu19B/8QVczGCLEkPiwXxfcgXJyberjF+IRJ2R4WXCyHzxor4dj29X7cSNpyZgQeRunEi7isSVvZB/YDP2G5RlhLz7KAzzzsD+zSuw+SDw7KiBcNIfexB18QXrkTyEeDDmoeSdqsHB57PVjcnat/CS43rKOeRWti/GhYsZLAtw8OWkiiuoDwMJWrRvDWXGKcRX8ZF78fFIfWBA1S1nZje13veNsDaezebbvXWO5Vqtfaz4oZJi3K+siUpw40Z2TdlNYm1MlCPHjD1uNaxLPFjrq/y5szzH0jxWG9+timXroDFcoUwoKb5vKHBLbuBGtsnGNbF6LXqUtmOzsTYX8uUum0YsF6pQUOiAbqEV/Y3B6AF+aNayA5rrO+QR6yFh/wxGDmyAlFVj8fKSb3E4/iwSThzEV++F4q1tt9HqpVHoKte3NQf3LlJUglvp6bjDJq3J+R3rpy7AD3fY1IuL9I2q4RCMsKHOOPXx61j881WmIg1uxa3EuGd6Y8iiWBTom1kL3d6HxbN24GKhBgUXtuGdBXsgCh6DIQ+4IuUQHIahzqfw8euL8fPVYib8LcStHIdneg/Botj7EP25Gx9MmYqFBzK1T1CW3buKv3JK4OTuDgdZLebNXTEbOQSucasxZ+M55LEoyju3EfM/+Aq/5zmgfkgYBqqisXhKJOJzmcsU/onvZs3DjoKuGPliSxZePIhkkMsI+Xfu6BfLmnBXmUQlt5CefoeFjwY5v6/H1AU/4A73zksrtggyuQyUfwd3uE5qY1891tmjPkLCBkIVvRhTIuOhm/53mDVvBwq6jsSLLdnxSWFoHLsAYTO/wuHjx7D9/THMV7NAVQsOI7irRCKU3EpHuk54/L5+KhbohLf4ieCq8OrP8TmMe8ERh5e+iQ1n70JTlIEf3puP7df1GaF+CMIGqhC9eAoi43OZnQrx53ezMG9HAbqOfBEtTRmZJ17ui/7E7g+mYOrCA8jUOSqu/pWDEid3uDs8IJ3IOmPUi61wacMK/CB7DiP712M7i5CyLxKR3yeg4ktGjKiDL9SGOsdDdR5C3hHJ5JBRPu5og4PPZ6tL6Ijnxr0Ax8NL8eaGs7irKULGD+9h/vbrlYub+ZxU28xoGnXIJIQ1jsWCsJn46vBxHNv+Psa8tQ1Z9OA3yXXKmc78vl+Usg+Rkd8jwbQDWhnP5vNtnWPZ6ngQQ+3hAcfsI9i+N50bBZkHF2Llj3drXnF9ANbFhNi8PRzrFg/W+iqfvsVW5LHa+G5V+NfBaojV8PBwRPaR7dibzoQrzsTBhSvx411LLWet7z5a21mfC/lylwOCw4bC+dTHeH3xz9C5QxxWjnsGvYcsQqU76G69ffRoso/R0qGtSS0RcRbSvkTyRtR98hZKrbhrmrsxW9mIJuzXP6HBKE0IJz+lH4UnlLJOcih6ThdykohJZmtHCpkT+Y5eTLOD1aQeHEVZhvu1jdBkx9DiEG+yFbPzFHKSiBTUpF84RetP4G7OVjaaQJXDFv9K77RUUrelf1TeAH1nQwgp9TeYa282d+xCzwU1IplURlKxnNx6z6b913T9aR+OUDahiQerPoihoeyYxRTibUtisYwUcgmJFE2oX3i0Tu7SNNoyoQOp2Vs2RT17Ukql5BwwhXamMwlqOW/S5FLskoHkqbQhmUrJ5FSS58Bl9Kv2cUIN3YieR8+4K0lkoyAVk0fhFkTTdl3WPfjDZwu6T0em+ZDcRk712r9DMfe5m8qV1GTiwcqb4DU50TSnixNJ2Hxt7RQkc/Kl0YtnU7BaTYOjsrQ3rt8/Mo185DYkr9ee3jl6vVbzNG8P3cNfyiYTydgcNyh63jPkrhSRjUJFcomC3IKm0a7L2tkzCijpq0nUy1tNcqkduQWE0dRhbL7t32XHTPWpoZzoOdTFSUJimS3ZKWTk5DuaFs8OJrV6MEVxwtfQaTH9+k5LUnZbSn8YHI1ClC40ds99i/SnyT5KC/o3IYVYyuYupfpdx9LQdqrKBw80N6Jp3jPupBQxv1Ix31e4UdC0XaSdpvZBAGObcZiPl1JK2zKBOqhtmN7qkb1SSlLnAJqyM73KwwI1KU1eSJ1lEvKeclj/QNdNWjtATtKqc68Kn8+X8j9QZk1MswGtjAfztuMwr0fugQslNZqwX68PRmkChfspyS88Qbd9/whN85GTjbwetX8nRmsv8z5bDU02HV3Qn5ooxCSVMTvV70pjh7Yjlf6BIm7O5nKStQ+UGembaS0h3I+UfuH6bRZRSV/RpF7epJZLyc4tgMKmDmOx357ePVX68HMmd7Y532fcXDuAxXY3WmraAfnjuTpm8m2dY7k2a0BxMq0d5k1KMfNlFfNpzxCaO7kH2VZ5oMy8zXhiojp89uBZh42p9m0JfL5QDX59m89j2jWlMjeY992auYELZcNaaYntq1OcvJaGeStJzGJcxWLdM2QuTe5ha/RA2YNtVwvfrYvtTK4jxvnBOtsz+HIXOx6zOIS8bcVsjgqWC0WkaNKPwqMN+hRx/2ir3MdE0c3zSLpwAwViB3i0aQ8vR1Mf45uDvSPOOIuzGUVQN/dFu8Yq/X4+NLibnojkzHzI3dqiQzMnVN73byU5XzyLpvPcsDPtE7S7kIjrcm/4tnGFQn/cLJq7SE9MRma+HG5tO6CZU1UpypF/9RyS/rwDsbMPfFs3rNJnbefN3oXl/omEc9egcWkFv5bOxvMuy0VaQgqy4IpWHZqjvjVKKc9D+pmz+KvcDR06ecHkhTvWJuPsWWQUqdHctx1qis3mlX4GZ/8qh1uHTvBygNXzrIs9ynLTkJCSBbi2Qofm9fW6KUdWchyuO3RAx6YVjxcU4/CUVhiY/CbuH52m31eT8rwMnD2bgSJ1c/i2awzLrfQAePXHUYSs1LNIK3BG26e8oa5hhzLkpiVAN80OaG6Rkc3HS3n+VZxL+hN3xM7w8W2NhjzKLr/5FYa1/hAt95/Bsq56Ld9ch2GvAuu+/z+Y/sCj9j5fa+oSDyapW94pz0vHmbN/odytAzpzwcEw7bMPpigrFWfTCuDc9il413QOnpz0cCjPSkbcdQd06Ni08oGd4sNT0GpgMt68cBjT3E06gI5a50wOM75ffhPrdA6I/3vAJ261iecH5ts6x3Jt4qEEty6cwYXb9dDCrw0aWvIJaXWsigk+e9RxHbbGVy3QtyV5rE6+W4FFtq9GyS1cOHMBt+u1gF+bhrDWdNb77iO2XS3O58tdmrvpSEzORL7cDW07NIORO2hLXAGrqPmuSeC/ycO3Rymdfs+X5F5htCWtgG2XUfZvK+k5VwV1nHtK10TAQrj30fl0emEg1e+6mCq/rY3u0/F5Q+nVbzJNXrkQeLIoPf0e+cq9KGxLGmkjKvs3WvmcKyk6ziXu4td/g/vH59HQV7+hTMEBBczwd/RdAX4seMshUB2RSAwbcZWvLxP4r/Lw7SGB75SleMvjCMb7qKGys4Vr9/eR0XsFvpzZSd9GwBLK4sPRyd4JAR8W4dUlk9Gm8kY9BbqE70TkyKaP6cZ/gf8mEt8pWPqWB46M94FaZQdb1+54P6M3Vnw5E52s/fDuIaHoEo6dkSPRVHBAATP8HX1XgJ/HfluCgMA/hzLcTk/BH1mlsPdsjVYNLfksScAIzV1kpFxGkWsbtHS27kMsgSePstvpSPkjC6X2nmjdqmHdb9sREHhMCL77z0IobgUEBAQEBAQEBJ4YhA9kBAQEBAQEBAQEnhiE4lZAQEBAQEBAQOCJQShuBQQEBAQEBAQEnhiE4lZAQEBAQEBAQOCJQShuH0BxZhJSc/Q/ffgY0Fzeg8UzVuHIIxtTg8t7FmPGqiP67X82dbVP/q+fY8a8b5HK/bJpbcj/FZ/PmIdva92BeTQZe7HkrWmYNs3U6x18ejRX3/JJohAn1s3A3K3n9NsCdacYmUmpeFhp5W5sBGa8v1O/JcDL3VhEzHgfOy9q9DseI4UnsG7GXGw992hyVJ35b+rmH8ajrw8eLmXntiL8rX9j/W95+j0W8JD9VShuTaC5/DmG+L+MrZmPsbi9FoONETtw6s6j+vIKDa7FbETEjlP67X8udbdPOQoSv8NnX0Tjcm3jqDgDJ388hMSbjyYxa67/gq8/24Cfzt9CTk5Ojde9+0/iglCCzN9+xE9ns/TbAnWDvaH9fAj8X96Kh5PKypGfsAsRUU/GG+THQXl+AnZFROHIlf9CgVmSid9+/Alns/6eueK/qpt/GI++PniY5GL3khmI+F0Nf996+n0W8JD9VShuTUD5N3Er/5/xDul/kb+FfeqH4qvk41jcqza/Z2khogZ4etYGbNq0qdorCu8966xv9CShxoj1yTi5rK9+W6BuEPJv3oKQyv5HUY/A+uSTWNb3EeYoAYHqFGUg3/MNRG18G77WuN5D9tfHUtze/f4N9By1BOvnDYSPoxxytRd6vhKJU3d1x3N3TkbP0DmY+0JrONk6wW8md2WgBJf3hmOoX2PYSSVQurRG8PStSClkhwoO471+3TF+YyYMebsEJ5eEoOdr27Rb5VlHsTw0AE3tZZAonNFqwHR8k1qkPaalLBMHFo5AgIcacqkSzm2fx3v7MlF6bTMmvfwFzhenISosEGM3pLPGZmThuHsSn40NRAtnW8hkDnD3H45F0TeqyFaTwuRNmPq0D5wUMjg064c5h26ypagKJZexN3wo/BrbQSpRwqV1MKZvTYFuyLv4/o2eCFuxBUuHd4SrSgq5U0sEz96LzMo3PYVI3jQVT/s4QcFkatZvDg7drDpCObKOLkdoQFPYyyRQOLfCgOnfoKqKjLmDfe/0RtD0vbit38OR/5/Z6Nv7LexlO8tvHsNHY3uhpYstpDasz/o+6Pv6ZqQW6xubwNpzyk3Yx6T/lN/EsY/GoldLF9hKbZgP1IdP39exuWrHlItfF4WgpaMMMntP9GA+eabyU5Ry3Dz2Ecb2agkXWylsJArU9+mL1zenQttD7k5M7h6Mhb+W6FqbnUcudk7uidA5c/FCayfYOvlh5pEK56kLlvhBdXjszuPLvHFlhF6+pVGYP6QtGjBft23SDa99k4rkza+hp0c9NoYjfAZ+gJjb3Ahc++7oPz9Gf7oZWe5+jzd6hmFp1HwMaduA+bgtmnR7jcmSjM2v9YRHPWZTRx8M/CAG2q45zMZUdayVncN8ntDmwbCliJo/BG0bKCCzbYJurzHdJ2/Gaz09UE8mg6PPQHwQY4gws/rW62DFlqUY3tEVKqkcTi2DMXtvJjRMS9c2T8LLX5xHcVoUwgLHYkM6cwqrdMAHT4yYwLz/1MZfemLUkvWYN9AHjnI51F498UrkKXZEh+nckIWjy0MR0NQeMiazc6sBmM7GqPRiszFg/ZyN4Bu7Onx5jC9GuvfH/BhdjmKLDr6e0hc+Tsz37JjvvRKBFZN6YPinyVxjne7N5RJLcqoRddEVn20fkFP5/NusDh7kL+bnbX1c8+uFrz4oubwX4UP90NhOConSBa2Dp2NrZUFiwXrD5rRtUiAGLYtnWUtPWSI+HhaICV//xTYs8Acj2Jy2TULgoGWIF/th3KLZGORJSPx4GAInfK1todPTCmxZOhwdXVWQyp3QMng29lZ0WM1fyzIPYOGIAHio5ZAqndH2+fewr6KtJXmM+xGHRw332/9ymYIadJxAnx86Tse2zqE+rlJy/9duyiEN3VjTj2RiFflO3ESxsTtoe8xNKoidRe1VDtRxwmrafzyOojdMp0BnGXmO3003Nbm0bUQDUnZfRucrfqu+6Ai90cyO+nxyiag0iZYHqcmx00RacyCOzhz/jj4Y7EWq5pPowG2ucTGdWRhAdg5+9MraQxR/6jBFjm9PtuoBFJF0hnYvGkqe0qY0eF4k7U64zSNLKf32b3Zuq7EUefgMJZ8+SB8NdSdZk1foQL5WsprkH6Y3feTUoMfb9PXRE3R08yzq7SohkTSQlqdxEyqg2FntSeXQkSas3k/H46Jpw/RAcpZ50vjdN5nGsikyWEEKOy96es4mOhofR3sXBVNjaSMatydPP8Sb5CNvQD3e/pqOnjhKm2f1JleJiKSBy7XHS5OWU5DakTpNXEMH4s7Q8e8+oMFeKmo+6QBpVVQDZqevBpOj41DalK3fxVpuH+VC6pAv6bomm7aHupKixUj69GA8JSUxmT7k9KimoZty9O2rU4tz8hKr2SfHpP9kbw8lV0ULGvnpQYpPSqK4vR/SUE8pqYduMvicyIYc/SfTF9EnKIbzyYZS8nxlH+Vy42Rvp1BXBbUY+SkdjE+ipLi99OFQT5Kq2fyZaJoba6ifohFN2H+fa2x+HpobtKafjMQqX5q4KZZid2ynmJvmf9C++MQMaiXzoimHi/R7TMHvB9Uxb3ceX+aNq+pw8slJqvSgAfN30fEzMbRmuAdJ7euTe+dXaV30bxS3ayZ1Vyuo29Lz+vYKchm7h/3NI0t2JAXLpaT0GEDzdx2nMzFraLiHlOzru1PnV9dR9G9xtGtmd1IrutFSbZLgi6nqWCs7G8FsnuBEZnlQqiSPAfNp1/EzFLNmOHlI7am+e2d6dV00/Ra3i2Z2V5Oi21Jtf7z65nSgUJCd19M0Z9NRimc+uii4MUkbjSPO/HmJu2kR57NNB9O8yN2UcNtaHVRHQ1c+7UNKz8m6TZ4YqQGv/9TGX+QkUzRgOv+cDh0/Rlvn9CFXqTv9azcngKm15RolLQ8itWMnmrjmAMWdOU7ffTCYvFTNaZJWCD6/s27OmiufUh+lJ03+mYvjUp6xa2I+j1kQIwoXGruHy1F5FP2GD8kb9KC3Nx6huJhtFB7clOlGQq1nxnGNtbFnLpeYl8UEfDnUSDfV4bGtyZyax+PffDowXYvwzdvquObzIb76oCCWZrVXkQOrp1bvP05x0RtoeqAzyTzH024u0Viy3miu0Kd9lOQ5+Weq1H7xL/SWj5ICl6exDX5/MMaQGwzmLKZf3vIhpb7m4PSkUNiR19NzaNPReKbHRRTcWEqNxnH5XtvA4K/FZ2hhgB05+L1Caw/F06nDkTS+vS2pB0TQpTLL8tjjK27lXWjxuYpKVEPXvgwhtf3ztD6rVOtQckU/irhaIVYe7RhVn5TdllBqxSncORsGkVrVl1ZnaOje7rHUSN6J5ieWao8W/DSJPByCae0VDRVFv0Yeiq60pLLyZWRvphec7GlQ1E2muKM0tZmcOrx7iqlfT/7PtGj0BPrsZBGVJs6nTsoO9N5prm8+WQpoV6gT1eu5iE7f0clflv4TrYvYQ8mm6wvK2xVGzsog+khbyHJo6Oq6Z8lepnfevB00qr6Sui1JJcOQ12jDIDWp+q6mDFZIagM/aCVdrlCZdk4K6rwohW3k0a4wZ1IGfUSGIa7SumftSaZ1tCKKfs2DFF2XGN4cMLI3v0BO9oOIU5FJcrfRSBc1DdpwQ+dAOVvoxfoN6MUtrNrVZNHJraso6liVRbI4hqa10MlUZRgDtTmHYWwfXUIy9h8NZZ3cSquijmmLCh3FFDOtBSk6L6KUsopzetCHFyoVpLMBSzBfc7kz6yRtXRVFx6okheKYadRC0ZkWpZQZF7d889AmGzkp+kVQpYg8aItbiZikChWpVNVeji/QJq1v8flBdfjsft+sL/PGVQ308jGfq/DDokOTyF3qQZMOcQsug/n1Z08rqNGEfWxDl1B1xa15WbSJUC7TJmJd10V0aJI7ST0mkaHrz+hpzkb72A7emNLvq8Ra2flzlu5NfsUbWEbRIZrkLiWPSYfYbDlY+8+eJkWjCdotXn3rdRC08nKl3xUfnUrN9D7KFVOJ8zuRssN7pEtl1uqgOsbFLV+MVIfff2rjL3KSd1lMhqXlGn0Zoib759dTlsZEbiiKptc8FNR1yfkq+SWbNr/gRPaDougmj99ZO2ejAo537Orw5TELYqSiWLj9DQ13qkf9IzIqfYVyttEoF2mV4tZcLuGTRb+rCrw51ILi9oG2LTWRU/n8O4dPB7VZSzg1WxfXfHrhqw/ydoyi+sputMSQaNg0N9AgtYr6rmZzs2S9sai4tWZtsay4lcuCaKWhQzo6tZlWj1qq+Ks2j8k70LunKis0VqItotETPqOT2Zblscd2z62NVxB6N7fRb4nh0jUAzUvOI/mi7mZykaMHPJz04pRdQtL5AjTt1hPeFadw5wQFoo3mAhJTSlGv/0iEuCRh5zdnUIYCHN22D/d6j8CQRoRrCUm4XnYea4f5ol27drpXr/mILbyPi+fSUJR7DilXHfBUQFtU/tq9bV+8u/lLvB5Q7X4PXlls0OflMXD/fS78GzeBb/8xmP19HgKGD0RbO31zI8qQnpyKPDc/+Detoo/uXdFCotsqu5SE8wVN0a2nNwxDuiAosA00FxLBps8QQe3dHK4VFhSroa4nQllJCesgHcmpeXDz84dhCBd079oC2iE015CQdB1l59dimK9eP+zVa34sCu9fxLm0yg8qjHF8DqEDbXFs5w/IKi/HzR+242fZs2xffW3/ASPGwP/uLiyZNRkvD+sH/zaDEZGmQTlra/I2+Nqc8wCM/IfTZ8AIjPG/i11LZmHyy8PQz78NBkekQcP6Ldd3bOPRFYGeVWzQpTOaFaUi6WIJEy0AI8b44+6uJZg1+WUM6+ePNoMjkKZh51d0UIFF8xDB0cMDlSJagrgRhn3yH/z888/Gr4MfYEDlD5ub8YPq8NpdbMaXNbxxZdprRLBv5gM3vZpFKjsoJY3g0VSq2yFWQaUUQVNW/bMuBX9ciezRzMdNHyMiqOyUkDTygKFrFZQiDbiuLYup6lghuwU5i0Nk3ww+hg5hp5SgkUdT6HoUQ6VSQqThcqKF+hap4d3clZ2pQ6xWo56oDCUlNaOndjp4MFbFiKXzsdpfbOAV1BuGpcUFXQOao+R8MvRLi1Fu0FxLQNL1MpxfOwy+FTK064X5sYW4f/Ec0krM+511czaGf2x9w0r48pgFMaKn7I9EpBZ6oHNA40pfgboburbV61WLuVxiWU6tSl10pYPPtsY5lc+/k1It0YGxv1g6b8vjmk8vpTz1QRkuJZ1HQdNu6GlINKzPIAS20eBCYgr0mcb69aYGVqwtFiJSe6O5oUOo1fUgKqveXzlyz6XgqsNTCGhbWaGxEu1dbP7ydTx11bI8VqepW4NIoYSy6mg2EiYYMWPqNkU2NpCIdH9z965xfiCR6qs9PSJ2joRNvFzDPErVB6FDmuLirm8RlxuN7T8Wo//IQWjIxiguZsqy74TQGbMwa1bFKxwrIqOw5KVmkJSWsVTLxpdWDmgGflkcB3yCE2d+xNp3QuCVfwJfznwRAX7DseFS9QVbR5mG7Rdz5xsQKRSQV4hTwhZkdtR4SBFTGdvBFMZNX7vNdGZE5XTY/LRDGI0AhUKub1IMnYpCMaNSP+wVvgKRUUvwUjPjuRqwQ//Rg+H0y07suXode7YfQ72QUDzjwA6VX8OO8f7wf+l97ErIhdw7COMWzMNwdzMuVptzHoCx/5Tj2o7x8Pd/Ce/vSkCu3BtB4xZg3nB3Y4eXyiCtuoPpi9skpt/yazsw3t8fL72/Cwm5cngHjcOCecNhUjSL5sHZS2IwkUXI4OzTGV27djV+BbSEc2XX5vygOvx2N+fLvHGlH8UYEaRS48WD2yeqJrIpeONKJGV96/6sRMT0of/TCItiqjrWyG5BzuK2WX81RTatDIv0zc612Py10sGDsSpGGJb5j7X+wvKaUmkU1zYS1piYzvXbRrmhuJhZyh6dQmdUkWEWwldEImrJS+BSnzm/s3bORlgwtjH8ecy6tYdbbyu0YgpzucTCnFqFOulKC59tOXmr5FSL/JtPB+yMWqwl1sQ1n1746oMSXaIxOs4FiG6amsqLKZasN8Yhz/TKLX6VmPOHB1Ath3BvYox6ZP0Z92i6w1LuzSuztckSzcI8ZrGb1RVN5nmcz9dvMPKTk3HJxhstKy5XVkXiAS93Ca6wNpXPajAKE5PwB5rA04tzIzm6jxoG74z92LxiMw7iWYwa6MT226CRlztUBYVw6BaKMWPG6F6jB8CvWUt0aO4ESX1PuNvnIu1ClYe+ylLx5WujMW/fdaanKhrlk8XjHuK/XYWdN57ChAWR2H0iDVcTV6JX/gFs3n9D37oqEni08IL8egrO5Ro6LL5wERm6N3ZsSC+4S64gOfm2QT4UIjHpD6CJJ7TTNweTuYWXHNdTzsEwRDEuXMxgTsGwacTmpEJBoQO6her1w16jB/ihWcsOaG7m7Z6i52gMaxyH3Rs3YMcvDTBkdB/Ysv3lV3ZgzbZs9F0Vj1P/+RZfrAjHlJCGKL3HBHhAMqnNOVqq2scU5VewY802ZPddhfhT/8G3X6xA+JQQNCy9x4VvpU41Vy/ijyo+mZeUhHSJF3yaiXFlxxpsy+6LVfGn8J9vv8CK8CkIaVgKU6LVeh6PGz67q2+b8eVbvHH1UJNJeY6VcWWeOscUHxblLGvgz2OW6Ns4lT1MHZRbFSMPaz410SDz/HkYwjifze8SbLxbVn4SVhWbRkwHqgIUOnRDaIUMY0ZjgF8ztOzQHE4w53fXrJyzMbxjV1cAXx6zIkYkLdqjtTIDp+KrrHn34hGfauHlegtzqgFr/cMU1tmWz7+bt66FDqyeNx98euGrD9hxFkeSK8lINk400E3Tq0aRbRruTTGhpPi+ofgsuYEb2dbPqAKuEKaSYtw3dIgbN7JroSMx6nu6wz43DRduGM4uS/0Sr42eh4MKD4vy2ENdj8xBt/dh8awduFioQcGFbXhnwR6IgsdgCHeptQb1ERI2EKroxZgSGY9cZtTCP7/DrHk7UNB1JF5sqav9ZZ1H4cVWl7BhxQ+QPTcS/fVfqeYQHIahzqfw8euL8fPVYhYjtxC3chye6T0Ei2ILtFd9Rw5xRdzqOdh4Lo85VB7ObZyPD776HXkOjhDJ5JBRPu7c4byJR5bWEvy5+wNMmboQBzK5Zx3LcO/qX8gpcYK7O3dJsyaOz43DC46HsfTNDTh7V4OijB/w3vztuF5hqfohCBuoQvTiKYiMz2U9FuLP72Zh3o4CdB35IvTTN4Mjnhv3AhwPL8WbG87irqYIGT+8h/nbr+udwQHBYUPhfOpjvL74Z+hUFIeV455B7yGLwKnogcgCMHq4F46vWIFfm76A0G762zi4d5KiEtxKT8cdNogm53esn7oAP9zhLlg84Fng2pzDMLaPKbh3dSKU3EpHuq5j/L5+KhboOq58Mpnu7MeSf+9GelE58lM2460F+yB9bgwGNRBrr8CJSm4hPf0O05kGOb+vx9QFP+AOd/Wzumi1mEfZhR8RuW4nTlVJYDUpxd0r53Hu3LlqrxSk/lXxPLg18Nj9vsisL/PG1cNEbF4Wq6lzTPFhWc6yhrrrWwSZXAbKvwNdKrNAB0Up2BcZie8T+P3LqhhhPBr/IdzetxizdlxEoaYAF7a9gwV7RAgeM0T7KV4NHIIRNtQZpz5+HYt/vsok1eBW3EqMe6Y3hiyKRQGP31k7ZyP4xtY3M8CTx6yJEXUIJoU1RuyCMMz86jCOH9uO98e8hW1ZxHutQIdlObUqddKVFitty+ff7Lj1OrB+3nzw6YWvPqgfEoaBqmgsnhKJeF2iwXez5mFHQVeMfLElK1stQKyGh4cjso9sx9505jvFmTi4cCV+vFvt0qvFiKH28IBj9hFs35vOzQSZBxdi5Y93q1/MtQhVn5EY4hqH1XM24lweexORdw4b53+Ar37Pg4P3IMtyue7W20eL9ik5xy70XFAjkkllJBXLya33bNp/jbvzV3cTt7LJRDpY9b5yzQ2KnvcMuStFZKNQkVyiILegabTrsu4BMh2llLywM8kk3jTlsP6BAy0ayo5ZTCHetiQWy0ghl5BI0YT6hUdTlv5mY01uLC0Z6ElKGxmplFISKz1p4LJfdd8UcP8ITfORk428HrV/J4ZXltK0LTShg5psbBRUz15JUqkzBUzZSemG+72rweQ7uoD6N1GQmNOHtD51HTuU2qkMN6VrbkTTvGfcSSmyIYVKThKFGwVN20W6IbmbvZXUaMJ+/Q3rjNIECvdTkl94gm5bk01HF/SnJgoxSWVSktbvSmOHtiOV/uZu7njM4hDythWTWKZgcxKRokk/Co/OYtKZpyxlMXWRS6nTvLPMAno0ORQ9pws5ScQks7UjhcyJfEcvptnBalIPjqrUuxG1OYfDyD5HTfiPhnKi51AXJwmbmy3ZKWTk5DuaFs8OJrV6MEXpH2JUtRhEY/s0IrlCwXxSSq5B/6aD13WDanKiaU4XJ5Iw/7G1U5DMyZdGL55NwWo1DY7KolKjB8p45qF9+EFJTSYerLx5P++rQSSXGh6IrI7ugTJtXjDxEpHtsC2slQV+UB0eu5v3Zf64MqamfMW/vkMtld1o6R8VwXGHNoQo9Q+Rce0rHijjkYV7+EBZ8W0VHMX06zstSdltKRm63kAhyoqnxZn0ZmOqOtbKzuDJE1weVDaaQAaRf6V3Wiqp29I/Kh+MuLMhhJQuY/VbPPquoQPO/OHkp/Sj8ATdmPePTCMfuQ3J67Wnd2KK+XVwcy0NYLHNyVSTag+U8cRITZfg85/a+Ytjl+coqBHLoyzPieVu1Hv2ftIuLWw8U2uLJjuGFod4k62YxauC6UCkoCb9wila78Tm/M7aOVd/aIpvbGP48piGP0Yqvy2BUZBEX03qRd5qOUnt3CggbCoNY3m0/bunuMY1dG+cS/hlqQ5vDuV9oMyMbbUPTRnnVA5e/zarA1P+wj9va+Oa34f46gMmZ/Q8esZdSSJmdxWLI4VbEE3bdVm3Hj9AN9UpTl5Lw7yVJGZ5SsXylWfIXJrcw7bKA2VWri3FybR2mDcpxUweFevTM4TmTu5BtlUeKDPSE5M2IdyPlH7huk0jf9VQbuwSGuipJBuZipRSMcs7A2nZr7pvFbEkl4u4f9iC+UjJ+eJZNJ3nhp1pn6DdhURcl3vDt40rFPrj5ijLTUNCShbg2godmtc3PACmpRw3vxqG1h+2xP4zy9DV+CB7l3UX6YnJyMyXw61tBzRzqt6gDLl/JuDcNQ1cWvmhpbPheHleOs6c/Qvlbh3Q2Uv3LtisLOX5uHouCX/eEcPZxxetG1owu6IspJ5NQ4FzWzzlrTZxGZ3Jl5YA3ZAd0Lx+dfn5KcpKxdm0Aji3fQre6pojaO6mIzE5E/lyN7Tt0Aw1VGQV5cjLOIuzGUVQN/dFu8aVTz2ZoTbnmLZPdcrzMnD2bAaK1M3h264xTPbM7JZxJgFXpd7o2KFam/I8ZJw9i4wiNZr7tkNV0cqvR+AZ7yXw+u5PfPEsd/W6dvP4b2HW7ny+zBtXD5HaxJVZ6h5TfJjPWbWgTvpmfpl+Bmf/Kodbh07wcuBygDkdsJy6bhhexTrs+b+G+n1mMBMjD+Sh+U8Oi72mmOe2E2mftMOFxOuQe/uijaslPqLB3fREJGfmQ+7WFh2aOVmez2szZyN4xq4Gbx6zJEbKs5Acdx0OHTqiacXDZsWHMaXVQCS/eQFHp7nrd5rHopxalVrrqi62fYB/10EHVs+bD0v0wlcflOUiLSEFWXBFqw7NUatUVnILF85cwO16LeDXpiHq/vMJJbh14Qwu3K6HFn5t0LCuHbI5/plwDtc0Lmjl1xJVSjQGTy7XlriPmJoV+0OAe/eWf5oWBrJ3NYvPGb4SQkDgMVB0Yia1kbemmXGGryoREPjHc/84zRv6Kn2TaepK4t8NE1eXBExTepre85WTV9gWSitg22XZ9NvK58hV0ZHmnqpyuetvwyOw7T9OBwJ1wdSdKw8dkUgMG7HIwnt7LKEM8eGdYO8UgA+LXsWSyW0su89EQKDOFOPomy3hGPQRrnR4CcM61ubtsoDA3xRFF4TvjMTIpo9laagjbE0R20DMFpaHtrQ8qUh8MWXpW/A4Mh4+ahXsbF3R/f0M9F7xJWZ2MvF01n+dR2Dbf5wOBOrCY7kt4VGguZuBlMtFcG1T/VK1gMCjpfDGeVy4KoJbu5ZwqfvnOAICAgKPh7LbSE/5A1ml9vBs3QoN6/z5+j8QQQf/E/xji1sBAQEBAQEBAQGB6vwTPnsSEBAQEBAQEBAQsAihuBUQEBAQEBAQEHhiEIpbAQEBAQEBAQGBJ4bHVtwWZyYhNcfcrzEZY217gTpSnImk1Bz84zV+NxYRM97Hzosa/Y7HT+GJdZgxd6t+q45oLmP3B29j5uqjuCWEgwkKcWLdDMzdek6//YTA7L5n8QysOpKj38F2/bUfy95+Bx8dvKbf84gxIUNtqGsuz//1c8yY9y1SH/SDhHzk/4rPZ8zDt7Xu4DHzN8hhD5VHtraU49bhT/D29LnYklyi3ydgjrrGoubyHiyesQpHHkFtdjc2AjPe36nfqjuPpbjVXP4cQ/xfxtZMyxRibXuBOsIWsc+H+OPlrZn/+OK2PD8BuyKicOTKf28hK8n8DT/+dFa/VTcKYz/GzOVHYePXCc7C5ywmKEHmbz/ip7NZ+u0nBM01xGyMwI5Td/Q7ShAfMQuLDpagQ4Crft8jpoYM1lP3XF6OgsTv8NkX0bhc25AuzsDJHw8h8eY/o1j8O+Swh8ajXFvKM/HtB3OxNvJjzPnkEPL1uwVM8zDqKs21GGyM2IFTdx729xCUIz9hFyKijui3685jWS4p/yZu5VuuUGvbC9QRysfNW/n/+ML274J6xHokn1ym36oLGvx1qz5Gr9uMBT3q6fcJGKPGiPXJOLmsr377CUVzFVkOL2DN1qXo7/TPeZfzt8jl9UPxVfJxLO4lfG/fY+cRri2aC99gy0lP/OvN/ijYvR7f3xRWMHP8r9VVjzxLll/bjEkvf4HzxWmICgvE2A2XcHPbJAQOWob4yk8SypD48TAETvjaRPt0bYuSy3sRPtQPje2kkChd0Dp4OramFGqPIXcnJvcMxZy5L6C1ky2c/GbiiP6QEXe/xxs9R2HJ+nkY6OMIuVwNr56vIPLUXX0DnnGQi52TeyJ0zly80NoJtk5+mGlqIN5xHtBPyWXsDR8Kv8Z2kEqUcGkdjOlbU8CNUHD4PfTrPh4bq77rKjmJJSE98do27qpVObKOLkdoQFPYyyRQOLfCgOnfILVI15TTceaBhRgR4AG1XAqlc1s8/94+ZJZew+ZJL+OL88VIiwpD4NgNSOcucJiRxWIKk/H1lL5o4aiAXN0cz8zehE8n9sSEr/9iB8vN+oEOvjlZQG3moZfbx0kBmV0TdHslAism9cDwT5PZQX65737/Brr3n6/9W9v+2EcY26slXGylsJEoUN+nL17fnIpi7rBJ3604pw16jluE98P80KjqOQ+iPAtHl4cioKk9ZGwc51YDMP2bVOjUdRffv9ETYSu2YOnwjnBVSSF3aong2XuRae6C1t2T+GxsIFo420Imc4C7/3Asir7BZsWGu7kNkwIHYZlBEShL/BjDAifg67+4Fndx8rOxCGzhDFuZDA7u/hi+KBo3HphfdTKOWrIe8wb6wFEuh9qrJ16JPMWO6MjdORk9Q+dg7gut4WTrBL+ZP7BzuqP//BjtcU73PcOWImr+ELRtwOxny+z3GvOZ5M14racH6jE5HH0G4oOY29r2HOVZR7E8NABN7WWQKJzRasB0fFPhZA/ILebzhLXzZjCf2zT1aZ3POTRDvzmHcLPqxRHNdSTFROO3P/W6Lr+JYx+NRa+WLrCV2jC568On7+vYnKr3EDN2eyB8Mpj1r5qYyuU17XeETeUYPhrbCy1dbCG1YXFe3wd9X9+MiqlooVz8uigELR1lkNl7oscrkTiTpz/GpwvOht2DsfBXve6szQk889b53ApsWTocHV1VkMqd0DJ4NvY+MLDqktf4YuS/sbawuM88gIUjAuChlkOqdEbb59/DvvS/Ht3awnLumS3f4Kz7sxg9PRQDbA4hams6qmr87snPMDawBZxtmc84uMN/+CJEa4PQshxuXR7hyfMmKEz+GlP6toCjgtmw+TOYvelTTOypz53Mp7dNCsSgZfEwiJiIj4cF6tdPhhXxaLquKsHlveEY6tcYdlIJlC6tETx9KyrTGKMweROmPu0DJwXLY836Yc6hm6iaEh56HqyETzYL+ua+5/aRkpdIuxcNJU9pUxo8L5J2J+TQlU/7kNJzMv1cpG9DxfTLWz6kDFxuov1tooJYmtVeRQ4dJ9Dq/ccpLnoDTQ90JpnneNp9U0OaG2uon0xMKt+JtCk2lnZsjyG2uybZkRQsl5GiQUea8PkhOn5sK83p40pS93/R7hx2nGccNhCt6ScjscqXJm6Kpdgd2ynG1EB845jsJ49iZ7UnlQM7Z/V+Oh4XTRumB5KzzJPG775JmtxtNKKBkrovO1/5U8NFR96gZnZ96JNLZVSatJyC1I7UaeIaOhB3ho5/9wEN9lJR80kHiGmQis8spAA7B/J7ZS0dij9FhyPHU3tbNQ2ISKLE3YtoqKeUmg6eR5G7E1j7AvOy6IbnIZ+OTGtJcqeuNDXqCJ048hXTpRvZKmQUuDyNHdeY9wMG35xMobnyKfVRetJkbae1mUceRb/hQ/IGPejtjUcoLmYbhQc3JZlYQq1nxrHj/HJzPzetcBmr/Zuyt1Ooq4JajPyUDsYnUVLcXvpwqCdJ1UNpE/MFk7570/w5pimlpOVBpHbsRBPXHKC4M8fpuw8Gk5eqOU06wGmL+zlLBSnsvOjpOZvoaHwc7V0UTI2ljWjcnjxdFzUopd/+3Z5sW42lyMNnKPn0QfpoqDvJmrxCB/Kr61pH8S9vkY8ykJanMZ/87d/Mx1rR2MjDdCb5NB38aCi5y5rQK9zJJuFklJNM0YA6TvicDh0/Rlvn9CFXqTv9Sxc4dGNNP2YLFflO3ESxsTtoe8x57bxcxu7R9cB0L5cqyWPAfNp1/AzFrBlOHlJ7qu/emV5dF02/xe2imd3VpOi2VNueORktD1KTY6eJtOZAHJ05/h19MNiLVM0nEac2k/bJM58nrJ93Ph1+U+9zXx+lE0c306zeriQRSfWxwig6QK+4KWnA2pvazeztoeSqaEEjPz1I8UlJFLf3Q20Mq4duohweu5mGTwY+/zKBidxvyn7bQ11J0WIkfXownpKSmF9+yJ2jpqFaZ9fbXGRDjv6T6YvoExSzdQ71aSglz1f2US5rYV4XehsqGtEE7e+/W5sT+OetjXeFHXk9PYc2HY1n4y+i4MZSajRO55PV4ctrpuLKAE+M/BfWFra40MIAO3Lwe4XWHoqnU4cjaXx7W1IP+IgO7HoUawuj6Bi92VxBHcPPMAvl0b4JbiTvGE5nKn5Ft/Q3+jeTodXYSDp8JplOH/yIhrrLqMkrB5inW5bDrcojPHm+BvlHaFpLOTl1nUpRR07Qka+mU6CbLSlkutzJnIA+7aMkz8k/k0HEX+gtH2Xt4tFEXVUQO4vaqxyYH62m/cfjKHoDk8FZRp7jd+vqp/zD9KaPnBr0eJu+PnqCjm6eRb1dJSSS6mXkqZesy4MGm3DwyWZJ34++uGWUJs6nTsoO9N5pzvMsKGqM2jO77BhF9ZXdaElqReixXq5toEFqFfVdnUGlXPKSK6hfxFXzwaEtOuXUZfG5yiDWXPuSQtT29Pz6LLrLM45GmzjkpOgXQVfNDcQzjsl+8nbQqPpK6rYktfIcdhJtGKQmVd/VlKG5R7vHNiJ5p/mUqFVLAf00yYMcgtfSFU0RRb/mQYquS+i8QXTK3vwCOdkPoqibxXR0ajOSd3iXThXrD7IQ/3nRaJrw2UlO4TS/k5I6vHeahQyDVxb9PnPkf0djnBWsD0PC1GR8TgPqWVrc8s1Jv6MaRgtDbeZx+xsa7lSP+kcwe+t3Uc42GuUirVVxq8k6SVtXRdGxKm+CimOmUQtFZ1qUUqZbeKv5Lt85JimKptc8FNS1ir6ZJLT5BSeyHxRFNysWxaCVdLmi2+KjNLWZgjovStHvqM592hXqRPV6LqLTd3QnlaX/ROsi9lAyq4f5itv7u0LJqV5PWnT6jm5uZen007oI2sOdbBKdjPIui+lcpdNcoy9D1GT//HrK0ugKHbmiH0VUBo6uaDcqbisWCI6iQzTJXUoekw6x2XBo6NpnT5Oi0QTtVlH0a+Sh6EpLjJ2MXnCyp0HMyUzZhy8fFVg777xdFOaspKCP0gyxcnUdPWtfESsMo+JWQ1knt9KqqGNV3sQXU8y0FqTovIhSyszbzSR8MvD6l2mq5/4a9tNk0cmtqyjqWJXCpjiGprXQ+SWLEP05PejDC5WS0dV1z5I9Kxy+zuHTBWtdtbi1NidYMG+dzwXRSkNgafMtN35N+POaJcXtA2Ok9HGvLWy2R6dSM3kHetewuFD+z4to9ITP6GT+I1hbGPn7JlCTKjF4nyvGZd70+s8F2m2WfCiU5fGei06TLgTKKP2ndRSxJ5mVwhYWt1bkEWtzdv53Y8hZweSvVKqGMj4fQPUsLW5rEY/GsZhHO0bVJ2W3JWRIY2xOGwaRWtWXVjND5O0KI2dlEH1UoYOKuNPL+HDzYNXill82S9aWf8DNW2W4lHQeBU27oae3jX4fIHYJQmAbDS4kpqCU2yFyhIeHE/99FjZeCOrdHBU9iV26IqB5Cc4np+APS8aBCI4eHuC97e2B41xkM+Iw7qfsUhLOFzRFt57eleewkxAU2AaaC4lIKa2H/iND4JK0E9+cYT0UHMW2fffQe8QQNKJrSEi6jrLzazHMtx3atdO9es2PReH9izh38QbOpVyFw1MBaFv5U8W26PvuZnz5eoB+2wC/LPp9ZtBknMP5e654qounQQduQejRysLf8NbwzCnN8FH4g6jNPMr+SERqoQc6BzQ2+JK6G7q2leo3rEPsEoARY/xxd9cSzJr8Mob180ebwRFI05SjvFz/AU8137XonGporiUg6XoZzq8dBl+9rtq164X5sYW4f/EcdOoSQe3dHK6VA6mhridCWcmDdKlAn5fHwP33ufBv3AS+/cdg9vd5CBg+EG3t9E3MoOjzMsa4/465/o3RxLc/xsz+HnkBwzHQ7Mk28ArqjeaGwEHXgOYoOZ+Mi/rna0SOHvAwE4Ai+2bwcdN3IFLBTilBI4+m0FlQDJVKCZGG60yDawlJuF52HmuH+Vb6WLte8xFbeB8Xz6XpPhI0sg9/PrKxct5l6clIzXODn39TQ6y4dEfXFg+KFTFcAkZgjP9d7FoyC5NfHoZ+/m0wOCINmnLmI2S93fhksMy/LMPIfsy+ASPGwP/uLiyZNRkvD+sH/zaDEZGmYb5eXvkRqI1HVwR6VkoGly6d0awoFUnMKczrQn+KHmtzgqXzFqm90dwQWFCr60FUZkIpDyGv8cfIY1xb0oqQey4FVx2eQoBhcYFt33ex+cvXEVDtNueHsbYAt7F/815kNXIDjn+NqKgofJNmCy/7TOz4cj87ylD0wctj3PH7XH80buKL/mNm4/u8AAwf2BYWpC4tlucRbgrW5GwNMs6dxz3Xp9Clik+7BfWA5ctjHeOx7BKSzhegabeeMKQxFldBgWijuYDElPtIT05Fnpsf/JsaZHTp3hW6lPDw82AlvLKVWrS2PHiFeNRUszfnAKaXbaCEcyCJFEZ2F9lAwnaUl2t057FtG4lIe8gsIgWUyqrTZv0wBRJLhBaNwxKHjY2E/cuDmXF0VOunRMPcRQKp8eBsTtrBoWGDq/qEYkjTi9j1bRxyo7fjx+L+GDmoITNiMYqZM9t3CsWMWbMwq+IVvgKRUUvwUjNCmYZNzUbKLzeHBbJYAokkbMwqI7IEoVJWk6BaXwY/4JuTkXCmqfU8iB3muTHogXIbU35tB8b7++Ol93chIVcO76BxWDBvONyrukY137XonOoUF7NCzB6dQmcYdMVe4SsiEbXkJejUxfmcIRFp4XEIxwGf4MSZH7H2nRB45Z/AlzNfRIDfcGy4VHF3Ww1FoPIHvR0H4JMTZ/Dj2ncQ4pWPE1/OxIsBfhi+4ZLRvXHGiKBQKo0Sk40ucCrvFxWxOZgLdZFUiupvRURMx6Yo1jkZQmcYdDZrVjhWREZhyUvNdLmgmn1484S182bBqWEz5s6vhOUPhfxBkyzHtR3j4e//Et7flYBcuTeCxi3AvOHulXrjt1s1+GSwyL8sw8h+5dewY7w//F96H7sSciH3DsK4BfMwvLqzS2WQVt3FBOU2ifkFny6MsDYnWDhvbk7GHvYg2z2EvMYbI1ycP661RYJS3eIC6YOmXJWHsLaU3/gemw/ehYP4Ir79dBVWrWKvz37ETTs75O7fgO3a+/0dMeCTEzjz41q8E+KF/BNfYuaLAfAbvgEPTl3GOdyaPGJ9ziaI2JyNl0cVzC+P3Js1/Z46x2MJdGnMuKGI+Y2EG4cZokzDFCXmtg2IFApUpISHngcr4ZfNkrXlgap/qIiMLcYtsFRSjPuVlivBjRvZ+sBkGLWXwMPLHZIryUi+XaXgKExE0h9AE0+vGg5oFk0mzp+v8qUh+azfSzbwbtka3o9lnBbGzqBH4uEFd8kVJCffNugBhUjUDQ4vbnB5d4wa5o2M/ZuxYvNB4NlRGOjE9ts0gpe7CgWFDugWOgZjxuheowf4oVnLDmjewBme7vbITbtQ5YbrMqR++RpGz9vH/hYZEiHDIll4sGnaEs1V15Fyropdi87jQpXF1awf8M2J99J57eYhadEerZUZOBVf5eGbe/GITzVcUuD130rKcWXHGmzL7otV8afwn2+/wIrwKQhpWIp7rLHp+rk253DqYnNVFaDQoRtC9boaM2Y0Bvg1Q8sOzfk/aTBFeQ7iv12FnTeewoQFkdh9Ig1XE1eiV/4BbN5/g1MEbKgExQZFoOTGDWRrZSxHTvy3WLXzBp6asACRu08g7WoiVvbKx4HN+808VKBB5vnzVb7WJ5/Z7xJsvFvqrxg8TGzQiMW8qqAQDt1CK31szOgB8GvWEh2am/okiC8feTB3sW7eEo8W8JJzsZJr8KHiC7iYwTK8KcqvYMeabcjuuwrxp/6Db79YgfApIWhYeo+dz/7js5sJ+GSotX9Vy/3VKb+yA2u2ZaPvqnic+s+3+GJFOKaENERpNWfXXL2IP6qk07ykJKRLvODjdcO8LvTtK7A2Jzz0uHoIec3aGHmka4uTBPU93WGfm4YLVZy7LPVLvDZ6HvZdZ0Wcfh9H3dcWNvftm3G4vD+WxJxBQkJC5et09FwElh5B1KbzKM2Jx7erduLGUxOwIHI3TqRdReLKXsg/sBn7mZyW53BLsDZn26Bpy+ZQXU/BOV2y1FJ0/oKh8GZtbGwIJcX3DQVuyQ3c0LevlV9WjUWJB7OrBFeSk2GcxpLwB5rA00sJjxZekHMy5hoaFF+4CF1KePh5sBJe2WwsWlusDc1aIZLJIaN83LnDaUUMtYcHHLOPYPvedO59ITIPLsTKH+9WGtG4PVA/JAwDVdFYPCUS8blsX+Gf+G7WPOwo6IqRL7as9o6ZB7qNfYtnYcfFQmgKLmDbOwuwRxSMMUMawvkxjWNS6fVDEDZQhejFUxAZn8tKz0L8+d0szNtRgK4jX0RL7eAydB71Ilpd2oAVP8jw3Mj+0H1BlAOCw4bC+dTHeH3xz7hazFLArTisHPcMeg9ZhNgCFfqMHALXuNWYs/Ec8li05Z3biPkffIXf8xw4hUMuI+TfucPGZVggS1HKPkRGfo8EwxdNGFMvGGOHuyD2wzfxxZk70BRn4sD8+dh2zfC+yrwf8M1J28g8Fum0GuoQTAprjNgFYZj51WEcP7Yd7495C9uyWJLW5gZ+/60K9+5TVHIL6el3WArUIOf39Zi64Afc4c58wNPRtTkHDsEIG+qMUx+/jsU/X2UtNbgVtxLjnumNIYtiYYm6aiAW4c/dH2DK1IU4kMk981uGe1f/Qk6JE9zdHSBWe8DDMRtHtu9FOjtcnHkQC1f+iLtaRYgh+nM3PpgyFQsPZDJ52Nn3ruKvnBI4ubvD4YGZh3B732LM2nERhZoCXNj2DhbsESF4zBA0fATZyiE4DEOdT+Hj1xfjZ52TIW7lODzTewgWPcDJzOej1pBYO2/H5zDuBUccXvomNpy9C01RBn54bz62X3/QCsBd+RKh5FY60u+wNpoc/L5+Khb8cEd7RaeIx24m4ZOhlv5VPZfXgLvyIyrBrfR06KbyO9ZPXQDdVAzOTnf2Y8m/dyO9qBz5KZvx1oJ9kD43BoMayMzrQn9+JdbmhIceVw8hr1kbI490beGu+o7EENc4rJ6zEefy2BuKvHPYOP8DfPV7HhycFFavLWUXfkTkup04VaWoqkRzAVu3noD06REYXG2yNl4jMbqPHKc3RSG+9E/s/mAKpi48AF0I3MPVv3JQ4uQOdweJVTncEqzN2fWCx2K4Syw+fPMLnLmjYbnzAObP3wbD8qiGh4cjso9sx15dcsXBhSvxoy651sovjWOxPkLCBkIVvRhTIuOhS2PfYda8HSjoOhIvMkM4PjcOLzgextI3N+DsXQ2KMn7Ae/O3oyIlPPQ8WAmfbFLL1hb9vbePlvtHaJqPnGzk9aj9OzFExcm0dpg3KcUSUqgUpPIMobmTe5Ct/mbuGu1JQzei59Ez7koS2bD2cnaeWxBN23VZe5O69oEBZROaeNDUDfhV4B70UjhSl+eCqJFMSjKpmORuvWn2/mu6m5J5xtE9iaqkJhMPGm7yNgXfOA/oR3MjmuY9405KkQ3Ti5wkCjcKmraLLmsH11OaTAs7y0jiPYUO6+5s16HJppjFIeRtKyaxTEFyiYgUTfpReHSWfsxcil0ykDyVNiRTKUkqVpLnwGX0q/bByvt0ZJoPyW3kVK/9OxRTzC/LzbUDSC7tRkv/MNxMXoPbx2l5iCcpxEwHTA/1O4dQTzeF4SEZPj/gm5MJqj+MYZFOq1OQRF9N6kXeajlJ7dwoIGwqDWP+2P7dU7rjPHIbPVCWE01zujiRRCwjWzsFyZx8afTi2RSsVtPgqCzdw5DVfJfvnAfOPTuGFod4k61YTDIFm6tIQU36hVN0FncG9yCKkhpN2K9/IIJRmkDhfkryC0/Q76hJadoWmtBBTTYsHurZM7+ROlPAlJ2UrjV7MSWvHUbeSjHTq4rpwpNC5k6mHrb6hyJK02jLhA6ktmG6r2dPSqmUnAOm0E7dySbQPRzm2OU5CmokIynzGbHcjXrP3k/XdE6sfbhI2WQiGdRV84EyZaMJpH0wnqP4V3qnpZK6Lf2j8sGLOxtCSFnxbRasz+yYxRTibUtipm8Fi3mRogn1C48mTm2mcwtPnrB63pztjtKC/k10scLa1+86loa2Uz3wgbKc6DnUxUnC4sKW7BQycvIdTYtnB5NaPZiimODm7WYaPhnM+9cDMMrlR2vaT5ND0XO6kJOE9WlrRwqZE/mOXkyzg9WkHhxV+RChqsUgGtunEckVCpa7pOQa9G86eJ0bl18XRg+UcWdYmRP45l3D55gXJIT7kdIvXL9dDZ68xv9AmZkY+W+sLezf3NglNNBTSTYyFfN3MSk9B9Iy7eJi/dqS99UgtrZ0ovm6p9uMKI3/N7WXNqAR27jvyahJzjcvUQOJG43/IZfStkygDmobslHUI3ullKTOATRlZ7ouD1iQw63JI7XJ2bePL6cQTwWJpTIWb/Wpc0hPclMYHmIrTl5Lw7yVJJYw+Vh+9QyZS5N72NY+HqvXVcxXouc9Q+5KEdORitlVQW5B02hXpVOw3Hh0AfVvopNRymTsOnYotVNVyPgw82DVB8q4TR7ZLOj78RS3DM29y3QqNoZ+u3RHv6eYbp6Po9gT5+iGiRiu2Z5RmkN/xMfSL/F/ULbhwUzL4YpOJZfkCigv4zT9GneOrlcN4goe1zgmKaWcP+Ip9pd4+sPU4JosihrsRG1mnmAarEnZnct0+pdjFBOfRjkmGpTmpFF8TAzFnb9pfL7mHl0+FUsxv13SP13KYUYWJsfawYNo7Y0HBFIlxZSVGsd0yfq9X/WrTCow7wccfHPih0enVWFBlfTrGcqs+kBn0c/0OktCvT7O0O/g4Je7Eqbb9NOxdOx4El3VP8zLS23O0VJGdy6fpl+OxVB8Wo5JH7EaTR5dSTxOx2LiKOVGTUcuvnme4mJP0DmTitBQ3pVEOs7kiUu5YSisTcIt3LoCvCAvg07/GkfnLA+culF2hy6f/oXNMZ7SLHUys3nCmnlXcJ9upHCx8ifd5gsrhuZeOp2OPUbHk66SSRfhsZtp+GSw3r9M5nIjNHQv/TTFHjtOSeacnc0nneWoX8/WnK85XWiufUZPswLqlQNV/dOKnKDl4cdV7fJaXWLk0a4tXDykxcdQTNx5uln1uLVry0NEk3eFEo8zmeNSqGYIWJHDLaE2Obs4i1LjfqF4Fhv3q3zTTCXFN+l8XCydOHfjARfUrPNLU7FYmvMHxccyGf7INn3+/RuUwsn4520WqSZ46HnQgHnZzPf92IrbvwWVRae1KraSRzQO51j5pxdSYP2utLjye2D+O9w/Po+GvvoNZVqwCFdi9D19f1NKT9N7vnLyCttCaVyCKsum31Y+R66KjjT3VM0rCQIPE8PC/YgjVOB/iKITM6mNvDXNjHt0RdTj49HEyN9pbflfperXKArUHbN3PjxxiEQQ24jZ/8w/5FBnHsU4ZfEI72QPp4APUfTqEkxuY+qG0ceHoks4dkaORFOrPIjTiw3Ej1r/dUHiiylL34LHkfHwUatgZ+uK7u9noPeKLzGz00N/oknACBFEYp1//I09ROAfQzGOvtkSjkEf4UqHlzCso+Grqv65PIIY+ZutLf+ziMSw0dYN+m2BOiHiKlz93wJ/azS4m5GCy0WuaNPSGU9Cmv5bU3Yb6Sl/IKvUHp6tW6GhSr9fQEDgH0PhjfO4cFUEt3Yt4VLtO1cFKhDWFoEnD6G4FRAQEBAQEBAQeGL437otQUBAQEBAQEBA4IlGKG4FBAQEBAQEBASeGITiVkBAQEBAQEBA4InhsRW3xZlJSM0x8YsjD8Da9o8dzWXsWTwDq47k6HeYJ//XzzFj3rdI1f5Myz+BQpxYNwNzt57Tbz8G7sYiYsb72HnR8BO9Ag/mbmwEZry/U79lBWXnsDX8Lfx7/W/I0+8SqBuay3uweMYqHPk75yweau1PKMO5reF469/r8dv/mEP97dcpAYH/UR5Lcau5/DmG+L+MrZmWJQFr2/9X0FxDzMYI7Dh1R7/DHOUoSPwOn30Rjcv/mOK2BJm//Yifzmbptx895fkJ2BURhSNX/jFK+i9SjvyEXYiIOqLftpzc3UswI+J3qP199T+xKVBXNNdisDFiB07d+ac+n1t7f2IOhSUzIvC72h++/0MO9Y9YpwQE/kd5LMUt5d/ErXzLE4C17QUeBWqMWJ+Mk8v66rcFngyKkJHviTeiNuJtX+G7kQTqTlFGPjzfiMLGt33xv+RRwjolIPD35ZEXt+XXNmPSy1/gfHEaosICMXbDJdzcNgmBg5YhvkTfCGVI/HgYAid8baJ9urZFyeW9CB/qh8Z2UkiULmgdPB1bUwq1x5C7E5N7hmLO3BfQ2skWTn4zcYQdKs86iuWhAWhqL4NE4YxWA6bjm9Qi3Tm4i5OfjUVgC2fYymRwcPfH8EXRuPGgXFWYjE1Tn4aPkwIyh2boN+cQbhpdpClH1tHlCA1oCnuZBArnVhgw/RtUDsdBufh1UQhaOsogs/dEj1cicabyYzye8+9+jzd6hmHFlqUY3tEVKqkcTi2DMXtvJh74IT6T+espfXUy2zVBt1cisGJSDwz/NJkNdxPbJgVi0LJ4GMyQiI+HBWLC13+xjbv4/o3u6D8/RneMtT/20Vj0aukCW6kN02d9+PR9HZtTi3XHH2ADI/j6MAsnT0+ELY3C/CFt0UAhg22Tbnjtm1Qkb34NPT3qQSZzhM/ADxBzW2/E8iwcXR6KgKb2kEkUcG41ANNZe4NK30DPsBXYsnQ4OrqqIJU7oWXwbOzNrNBoCS7vDcdQv8awk0qgdGmN4OlbUeF21vpQ+c1j+GhsL7R0sYXUhtm4vg/6vr4ZD5y+lfoqTP4aU/r6wInpxo7p5pWIFZjUYzg+TS5jXW3DpMBBWBYvht+4RZg9yBOU+DGGBU7A139xAuv1u2ILlg7vCFeVFHKnlgievReV6jBC137UkvWYN9AHjnI51F498UrkKXZER+7OyegZOgdzX2gNJ1sn+M08wgUy9oYPhV9jO0glSri0Dsb0rSkwuEohkr+egr4+TlDI7NCk2yuIWDEJPYZ/qj1qsk8ePensvBRR84egbQMWC7YsFl5jsZW8Ga/19EA9ZjtHn4H4IOa2tj3rEDePfYSxvVrCxVYKG+Y79X364vXNqajQfGHyJkx9Wqdrh2b9MOfQTRilA7PzzMXOyT0ROmcuXmjtBFsnP8ysESwMs/5rrb0YD9GfuL4q8ofYbxwWzR4ET6qeP6yTT2unUUuwft5A+DjKIVd7oSfLkaf0DmXS9uZitOAw3uvXHeM3ZjKLVlCCk0tC0PO1bdot82sEoywTBxaOQICHGnKpEs5tn8d7+zJRanKd4ssXAgICjw3ue24fKXmJtHvRUPKUNqXB8yJpd0IOXfm0Dyk9J9PPlT+WXEy/vOVDysDlJtrfJiqIpVntVeTQcQKt3n+c4qI30PRAZ5J5jqfdNzWkubGG+snEpPKdSJtiY2nH9hi6WZxEy4PU5NhpIq05EEdnjn9HHwz2IlXzSXSAdVn627+pvW0rGht5mM4kn6aDHw0ld1kTeuVAvl6mquTT4Td9SN6gB7399VE6cXQzzertShKRtPKnZEuTllOQ2pE6TVxDB+LO0PHvPqDBXipqPukAcb/IfGNNP5KJbMjRfzJ9EX2CYrbOoT4NpeT5yj7K5T2fwf2kr0JBdl5P05xNRyk+bi8tCm5M0kbjaE8e16A6eRT9hl7mjUcoLmYbhQc3JZlYQq1nxhFprtCnfZTkOflnw29WG/08LvczjwpyGbtHeyh7eyi5KlrQyE8PUnxSEsXt/ZCGekpJPXQT5bDjJm1Q7ad5efu48in1UXrSZINjVIGTR05SpQcNmL+Ljp+JoTXDPUhqX5/cO79K66J/o7hdM6m7WkHdlp5n7UspaXkQqR070cQ1ByjuzHH67oPB5KVqTpM4B+B6jAwmhcKOvJ6eQ5uOxjN5FlFwYyk1Gqebc0HsLGqvcqCOE1bT/uNxFL1hOgU6y8hz/G7t3KzzoWzaHupKihYj6dOD8ZSUFEd7P+T8XE1DN3Gzr4l5fWkq40hLXjS94SOnBj3epo1H4ihmWzgFN5WRWKL72VFTujX+uUedvRV2XvT0nE10NJ7JtyiYGksb0TiTDqazh0zRgOnnczp0/BhtndOHXKXu9K/dWmvqfF6sIt+Jmyg2dgdtj0mn2FntSeXQkSas3k/H46Jpw/RAcpZ50vjdN7U/AZoX/Qb5yBtQj7c30pG4GNoWHkxNmV9JWs98QJ83ef2KszMrTMhjwHzadfwMxawZTh5Se6rv3pleXRdNv8Xtopnd1aTotpS15k7YTqGuCmox8lM6GJ9ESSzWPhzqSVL1UNKaKv8wvanX9ddHT9DRzbOot6uERNIKXRaYn6fmBq3px2yj8qWJm2Ipdsd2iqkeLLz+a629uGk9PH+yNH9YJR9nJ5mCGrA8//mh43SMy5GuUnL/126tfKZsbz5Gc2nbiAak7L6Mzlf8omnREXqjmR31+eQSl3TNrhHcunRmYQDZOfjRK2sPUfypwxQ5vj3ZqgdQRNKZGusUX74QEBB4fDz64pZRmjifOik70Hunud/mNyRRk8Utw7g9y7M7RlF9ZTdakmr4zWXNtQ00SK2ivqszqJQrrOQK6hdxVbtAchRFv0Yeiq60pDKrMbI30wtO9jQo6ibd3xVKTvV60qLTd3TnlKXTT+siaE+yicSbt4vCnJUU9FEaVfSmubqOnrWX6RN5EUW/5kGKrksMSZSRvfkFcrIfRFEss3GJWa7oQR9eqOyBrq57luzZgvl1Dt/53AYrbuUyClp5uXKOxUenUjNFZ1qUUuWkCm5/Q8Od6lH/iIzK9pSzjUa5SGtR3Goo6+RWWhV1rEqSLqaYaS1I0XkRccNri9tqNjDGgj4sKG5lzEcqfnq76NAkcpd60KRD+l9Z11yjz55WUKMJ+zgHoNc8FNR1yflKm3F9bH7BiewHRZFOpdxiGkQrL1dqlI5ObaaVhxmddoyqT8puS8jgdhq6tmEQqVV9aXWGxjof0mTRya2rKOqYrojTUhxD01ooqPOilCoyVsCnL+Ni5PY3w5ks/SmCyVVBzrZR5CK1prhl+g1aSQZ1HKWpzXTy1UTXXt5lMVX+FD3T/5charJ/fj1laSp8vh9FXNV3mLeDRtVXUrclqYb5snM2DFKTqu9qytDcpm+GO1G9/hHsb/1xVtZsG+VC0irFrVGfvHqqsHOV32wvOkST3KXkMemQ/vf5mV0/e5oUjSbotrJO0tZVUXTM0CEz1TRqoY+1vF1h5KwMoo8q+mPna2O5Ygy+eZZyxa2cFP0iqHIa1eH1X2vt9XD9ybL8YY18ejvJu9Big0PRtS9DSG3/PK3PKjVhe/4Yvbd7LDWSd6L5ibq1pOCnSeThEExrr2h41widvHLq8O4ppik9+T/TotET6LOTRdXWKX5ZBAQEHh//gK8CK8OlpPMoaNoNPb0Nv3ktdglCYBsNLiSmoJTbIXKEh4eT/j4LDa4lJOF62XmsHeaLdu3a6V695iO28D4unkuDuM/LGOP+O+b6N0YT3/4YM/t75AUMx8C2dtoeqlKWnozUPDf4+TdFhQRil+7o2kKi29BcQ0LSdZSdX4thvvqx2KvX/FgU3r+Ic2m6D/5tPLoi0LOyB7h06YxmRalISk236HyI1PBu7lp5L4lYrUY9URlKSmo+xFL2RyJSCz3QOaCx4d4TdTd0bSvVb1gDkzVgBMb438WuJbMw+eVh6OffBoMj0qApL0d5xfBGNqiOhX2YRQT7Zj5w06tQpLKDUtIIHk31cxKroFKKoCnTMJMkIOl6Gc6vHQZfvT7bteuF+bGFuH/xHAwq9UZz10qNQq2uB1EZO1h2CUnnC9C0W08Y3I7NISgQbTQXkJhSCoUVPsQcBgEjxsD/7i4smTUZLw/rB/82gxGRpkE5m3/N6VujrzL8kZiKQo/OCGhs0L66W1dYZ24R1N7NYVCHGup6IpSVVN64Ug0beAX1RnNDUKBrQHOUnE/GRf0zgSJHD3g46Tosu5SE8wVN0a2nd2UccecEBbaB5kIiUu7/gcTUQnh0DoBhGmp069oWVadRtU9L9SSybwYfg+PATilBI4+m+n7FUKmUEGl0QotdAjBijD/u7lqCWZNfxrB+/mgzOAJpGtZfeSnSk1OR5+YH/6aVE4dL966oSAe889QlLDh6eKByGtWwzH+tsdc/wZ+YR3kFobfBoeDSNQDNS84jWe9QRra3IEbr9R+JEJck7PzmDJtVAY5u24d7vUdgSCPiXSOKcs8h5aoDngpoa/hJWtu+eHfzl3g9oNrdxRbIIiAg8Ph4QGp9DFRbzctZdq25wOso4RYdiRT6tUOHyAYStqO8XKM7j23bSETaQxzFxSyB2ndC6IxZmDWr4hWOFZFRWPJSM0gcB+CTE2fw49p3EOKVjxNfzsSLAX4YvuFSzXtYuWKJqYobrxKRAgp5xXjF0A0XihmVY7FX+ApERi3BS830J0plkFbVOOuQ2ySy8HxujpWJU4dhxqYgbeFkDmOdc4ucKSuU49qO8fD3fwnv70pArtwbQeMWYN5wd2MHqmYDYyzswywiSKXVV1cRN2xNiotRAnt0Cp1h0Cd7ha+IRNSSl2BQKZNZ96eeCvlLWJHMuV1Vo3PtJcwPmZ40TE/W+FD5NewY7w//l97HroRcyL2DMG7BPAx3f9Dsa6Ev4oov/d8mqWZb1tjY3CLmX9Y4mAgKpdJIHhsJO5+TQ7/N6bfSJUo0rMCQwFilbExdIINTKQdxxZbuT5MY9WmhnkTMb2p4jknH4Uy1A+P9/fHS+7uQkCuHd9A4LJg3HBWmKtMw64o5PzAgUihQmQ4smiena8mD1WuR/1pjr0fhT9U9irU3cihr/YkdViihNHYoFp9cHtNtGtveghhV9UHokKa4uOtbxOVGY/uPxeg/chAasjF414jSMhbHbHwpj9BaLJBFQEDgsfHAvPZQERknBy7hUUkx7lfGewlu3MhmKUCPUXsJPLzcIbmSjOSKB4U4ChOR9AfQxNML1Rct7opSI3aOqqAQDt1CMWbMGN1r9AD4NWuJDs3VuB3/LVbtvIGnJixA5O4TSLuaiJW98nFg8/4aDwRJPFrAS34dKedyDTIWX8DFDN3VBNg0gpe7CgWFDugWqh+LvUYP8EOzlh3QXH+lQXP1Iv7I1/6pJS8pCekSL/j4NLXofGuQtGiP1soMnIq/YZD5XjziUyuuIHCFMqGk+L5hgSq5gRvZ1SbPUX4FO9ZsQ3bfVYg/9R98+8UKhE8JQcPSe1zaNvRvjofRhxXYNPKCu6oAhQ7dEKrX55gxozHArxladmj+wCtmlUg8mE0kuJKcDGO3S8IfaAJPLxvkWOFD5Vd2YM22bPRdFY9T//kWX6wIx5SQhii9xxqaqiCs0pcELdq3hjLjFOKrDHwvPh4GczN7UwmKDUHHzH0DpsxtORpknj8Pg0vnIzn5Emy8W1ZexayKxIPZRHKFtbldRf5CJOoCGV7KFmjfWomMU/FV9HcP8fGpuk9nTPHQ/aocV3aswbbsvlgVfwr/+fYLrAifgpCGpdCZiuWjFl6QX0/BuVxD78UXLqIiHfDOs2bCqkGd/bc6D9ufrMkfVqDJPI/zVXJkPou/SzbeaGnaoXhilFO0HN1HDYN3xn5sXrEZB/EsRg10Yvv51ggnSOp7wt0+F2kXquTQslR8+dpozNt33XidskgWAQGBx8VjKW5FMjlklI87d7jsL4bawwOO2UewfW86d80TmQcXYuWPdyuTpHF7oH5IGAaqorF4SiTic9m+wj/x3ax52FHQFSNfbMnSVE0cgsMw1PkUPn59MX6+Wsyy5i3ErRyHZ3oPwaLY+xD9uRsfTJmKhQcytU9Al927ir9ySuDk7g6H6lpxfA7jXnDE4aVvYsPZu9AUZeCH9+Zj+/WKLOaA4LChcD71MV5f/DN0w8Vh5bhn0HvIIsQW6FrRnf1Y8u/dSC8qR37KZry1YB+kz43BoAaOFp1vFeoQTAprjNgFYZj51WEcP7Yd7495C9uySJeTxWp4eDgi+8h27E1nAxZn4uDClfjxrqH4McBdhRKh5FY60u+wOWty8Pv6qVjwwx3tFaYqzxab4WH0YQUOwQgb6oxTH7+OxT9fZTbW4FbcSox7pjeGLIoFv0rrIyRsIFTRizElMh46t/sOs+btQEHXkXixpdQ6H+I+eRCV4FZ6OnTT/x3rpy6AbvqmZm+dvtQhkxDWOBYLwmbiq8PHcWz7+xjz1jZkkUh7sUys9oCHYzaObN8LnbkPYuHKH2HS3BZDuL1vMWbtuIhCTQEubHsHC/aIEDxmiPbKWA3qhyBsoArRi6cgMj4XZazg+/O7WZi3owBdR76IljZqhEwKQ+PYBQib+RUOHz+G7e+PwVvbskDV3iAbePh+xV19E5XcQnr6HVbUaJDz+3pMXfAD7nDZinXo+Nw4vOB4GEvf3ICzdzUoyvgB783fjsp0wDtPfTtz1Nl/q/Nw/cm6/GE5dHsfFs/agYuFGhRc2IZ3FuyBKHgMhph2KJ4Y1Sla1nkUXmx1CRtW/ADZcyPRX/9dvObXCKZhVR+MHOKKuNVzsPFcHntjk4dzG+fjg69+R56DY7V1ygJZyi7gx8h12HkqVyeAgIDAo0N/7+2j5f4RmuYjJxt5PWr/TgxRcTKtHeZNSrGEFCoFqTxDaO7kHmSrf6CsRnvS0I3oefSMu5JENqy9nJ3nFkTTdl0m7SNq3MNMyiY08WDVB5E0lB2zmEK8bUkslpGCnSNSNKF+4dGUxd3bX5pGWyZ0ILWNDSnq2ZNSKiXngCm0M73KwwVV0GQfpQX9m5BCLCUZa1u/61ga2k6lf3hC24BiFoeQt62YxDIFySUiUjTpR+HRWUwS3YMwqhaDaGyfRiRXKEjK+nEN+jcdvK5/0MDs+QzugTJlI5qwX//wFKM0IZz8lH4UnqB7WKIGBUn01aRe5K2Wk9TOjQLCptIwptf2757SHi5OXkvDvJUkljCdKlTkGTKXJvewNflAWU70HOriJGGy2ZKdQkZOvqNp8exgUqsHUxRTqGkbVMWCPngfKFNSown79Q8BMfl/fYdaKrvR0j8qbHaHNoQoK7/hQZMdQ4tDvMlWLCaZQk4SkYKa9AunaK0D6B5gUTaaQAaVllJCuB8p/cJ1m5obFD3vGXJXisiG6UfO9OQWNI12Xdbr2xof0uRQ9Jwu5CRhstjakULmRL6jF9PsYDWpB0fpfNIIPn2VGj/dzihI+oom9fImtVxKdm4BFDZ1GPnI29O7pzh5iyl57TDyVopJwuaiUHlSyNzJ1MO26gNlxvplDkbhfkryC0/Q76gK115Bjl2eo6BGMpLKpCSWu1Hv2fvpmnYuOp9XNplIVV1CcyOa5j3jTkoR05mK2UThRkHTdlGFSrlvGkj6ahL18laTXGpHbgFhNHWYD8nbv8uOmeqT369q2Ln4V3qnpZK6Lf2j8mGtOxtCSOkyVvu3Jiea5nRxIgnLG7Z2CpI5+dLoxbMpWK2mwVG6eM4+uoD6N1GQWMrmLq1PXccOpXYqw0NrZuep/bYEJTWZeNDwMJYJzPuvtfZ62P5kSf6wRj5dPCocu9BzQY1YjmV6FcvJrfds2q91KNP+xBujWkopeWFnkkm8acrhSmkYPGsE1yI3lpYM9CSljYxUSubjLD8NXPar7htsqq9TfLLkfUWDmC47zU/UbQsICDwyRNw/+jr3kVKel44zZ/9CuVsHdPZyYHtKcOvCGVy4XQ8t/NqgYbX782u2Z5TlIi0hBVlwRasOzVG/8i5/M2juIj0xGZn5cri17YBmTlVPKkf+1XNI+vMOxM4+8G3dEAr9EdMUISv1LNIKnNH2KW+oTVxM0NxNR2JyJvLlbmjboRmMhuMoz0fGmQRclXqjY4fGUOl3V8B7vqWUZyE57jocOnRE04rnm4oPY0qrgUh+8wKOTnPX7Su5hQtnLuB2vRbwa9PQ7Jewl+dl4OzZDBSpm8O3XU3ZLeFh9GEdGtxNT0RyZj7kbm3RoZmT4eEQCynLTUNCShbg2godmtevdr41PlSOvIyzOJtRBHVzX7RrzD97S/VVnpWMuOsO6NCxKQzmnoJWA5Px5oXDmKa/YbTk1gWcuXAb9Vr4oU31oLOKHHzxbFPMc9uJtE/a4ULidci9fdHG1XwE6ShDbloCdCrtgOaVgVyOrOQ4XHfogI4Gp8XhKa0wMPlN3D86Tb+vJg/dr8rzkHH2LDKK1Gju2w4mTVWUhdSzaShwbounvNUmPgZ70Dytoe7+W5WH7U/W5A8+cr54Fk3nuWFn2idodyER1+Xe8G3jypOTdfDF6M2vhqH1hy2x/8wydK2uQLNrBAez458JOHdNA5dWfmjpbDhuap0yL4uAgMBjQVviCjx5lJ6m93zl5BW2hdIK2HZZNv228jlyVXSkuforLwJPDqWn3yNfuReFbUkjnbl/o5XPuZKi41x6NOY2cWWuzpTS6fd8Se4VRlt0TkvZv62k51wV1HGu7tMGgcfD4/cn3ZVb409SHgLcFdj807QwsD51XXyuyteqCQgIPLkQ/T+sFSRwaP0OTgAAAABJRU5ErkJggg==;" vertex="1" parent="1">
          <mxGeometry x="440" y="20" width="695" height="105" as="geometry" />
        </mxCell>
        <mxCell id="eMzSvwGJKEWoqzO3pUmx-2" value="PROGRAMADOR" style="whiteSpace=wrap;html=1;align=center;" vertex="1" parent="1">
          <mxGeometry x="490" y="260" width="100" height="40" as="geometry" />
        </mxCell>
        <mxCell id="eMzSvwGJKEWoqzO3pUmx-4" value="TUTOR" style="whiteSpace=wrap;html=1;align=center;" vertex="1" parent="1">
          <mxGeometry x="655" y="410" width="100" height="40" as="geometry" />
        </mxCell>
        <mxCell id="eMzSvwGJKEWoqzO3pUmx-5" value="debe trabajar" style="shape=rhombus;perimeter=rhombusPerimeter;whiteSpace=wrap;html=1;align=center;" vertex="1" parent="1">
          <mxGeometry x="650" y="255" width="110" height="50" as="geometry" />
        </mxCell>
        <mxCell id="eMzSvwGJKEWoqzO3pUmx-6" value="PROYECTO" style="shape=ext;margin=3;double=1;whiteSpace=wrap;html=1;align=center;" vertex="1" parent="1">
          <mxGeometry x="810" y="260" width="100" height="40" as="geometry" />
        </mxCell>
        <mxCell id="eMzSvwGJKEWoqzO3pUmx-7" value="se le asigna" style="shape=rhombus;perimeter=rhombusPerimeter;whiteSpace=wrap;html=1;align=center;" vertex="1" parent="1">
          <mxGeometry x="520" y="350" width="90" height="40" as="geometry" />
        </mxCell>
        <mxCell id="eMzSvwGJKEWoqzO3pUmx-8" value="" style="endArrow=none;html=1;rounded=0;entryX=1;entryY=0.5;entryDx=0;entryDy=0;exitX=0;exitY=0.5;exitDx=0;exitDy=0;" edge="1" parent="1" source="eMzSvwGJKEWoqzO3pUmx-5" target="eMzSvwGJKEWoqzO3pUmx-2">
          <mxGeometry relative="1" as="geometry">
            <mxPoint x="720" y="220" as="sourcePoint" />
            <mxPoint x="880" y="220" as="targetPoint" />
          </mxGeometry>
        </mxCell>
        <mxCell id="eMzSvwGJKEWoqzO3pUmx-9" value="(1,1)" style="resizable=0;html=1;whiteSpace=wrap;align=right;verticalAlign=bottom;" connectable="0" vertex="1" parent="eMzSvwGJKEWoqzO3pUmx-8">
          <mxGeometry x="1" relative="1" as="geometry">
            <mxPoint x="30" as="offset" />
          </mxGeometry>
        </mxCell>
        <mxCell id="eMzSvwGJKEWoqzO3pUmx-10" value="" style="endArrow=none;html=1;rounded=0;entryX=0;entryY=0.5;entryDx=0;entryDy=0;exitX=1;exitY=0.5;exitDx=0;exitDy=0;" edge="1" parent="1" source="eMzSvwGJKEWoqzO3pUmx-5" target="eMzSvwGJKEWoqzO3pUmx-6">
          <mxGeometry relative="1" as="geometry">
            <mxPoint x="720" y="220" as="sourcePoint" />
            <mxPoint x="880" y="220" as="targetPoint" />
          </mxGeometry>
        </mxCell>
        <mxCell id="eMzSvwGJKEWoqzO3pUmx-11" value="(1,M)" style="resizable=0;html=1;whiteSpace=wrap;align=right;verticalAlign=bottom;" connectable="0" vertex="1" parent="eMzSvwGJKEWoqzO3pUmx-10">
          <mxGeometry x="1" relative="1" as="geometry" />
        </mxCell>
        <mxCell id="eMzSvwGJKEWoqzO3pUmx-12" value="" style="endArrow=none;html=1;rounded=0;entryX=0.5;entryY=1;entryDx=0;entryDy=0;exitX=0.5;exitY=0;exitDx=0;exitDy=0;" edge="1" parent="1" source="eMzSvwGJKEWoqzO3pUmx-7" target="eMzSvwGJKEWoqzO3pUmx-2">
          <mxGeometry relative="1" as="geometry">
            <mxPoint x="650" y="260" as="sourcePoint" />
            <mxPoint x="810" y="260" as="targetPoint" />
          </mxGeometry>
        </mxCell>
        <mxCell id="eMzSvwGJKEWoqzO3pUmx-13" value="(1,M)" style="resizable=0;html=1;whiteSpace=wrap;align=right;verticalAlign=bottom;" connectable="0" vertex="1" parent="eMzSvwGJKEWoqzO3pUmx-12">
          <mxGeometry x="1" relative="1" as="geometry">
            <mxPoint y="20" as="offset" />
          </mxGeometry>
        </mxCell>
        <mxCell id="eMzSvwGJKEWoqzO3pUmx-15" value="" style="endArrow=none;html=1;rounded=0;entryX=0;entryY=0;entryDx=0;entryDy=0;exitX=1;exitY=1;exitDx=0;exitDy=0;" edge="1" parent="1" source="eMzSvwGJKEWoqzO3pUmx-7" target="eMzSvwGJKEWoqzO3pUmx-4">
          <mxGeometry relative="1" as="geometry">
            <mxPoint x="540" y="390" as="sourcePoint" />
            <mxPoint x="700" y="390" as="targetPoint" />
          </mxGeometry>
        </mxCell>
        <mxCell id="eMzSvwGJKEWoqzO3pUmx-16" value="(1,1)" style="resizable=0;html=1;whiteSpace=wrap;align=right;verticalAlign=bottom;" connectable="0" vertex="1" parent="eMzSvwGJKEWoqzO3pUmx-15">
          <mxGeometry x="1" relative="1" as="geometry">
            <mxPoint x="15" y="-10" as="offset" />
          </mxGeometry>
        </mxCell>
        <mxCell id="eMzSvwGJKEWoqzO3pUmx-17" value="por" style="shape=rhombus;perimeter=rhombusPerimeter;whiteSpace=wrap;html=1;align=center;" vertex="1" parent="1">
          <mxGeometry x="780" y="360" width="90" height="40" as="geometry" />
        </mxCell>
        <mxCell id="eMzSvwGJKEWoqzO3pUmx-18" value="" style="endArrow=none;html=1;rounded=0;entryX=1;entryY=0;entryDx=0;entryDy=0;exitX=0.5;exitY=1;exitDx=0;exitDy=0;" edge="1" parent="1" source="eMzSvwGJKEWoqzO3pUmx-17" target="eMzSvwGJKEWoqzO3pUmx-4">
          <mxGeometry relative="1" as="geometry">
            <mxPoint x="640" y="320" as="sourcePoint" />
            <mxPoint x="800" y="320" as="targetPoint" />
          </mxGeometry>
        </mxCell>
        <mxCell id="eMzSvwGJKEWoqzO3pUmx-19" value="(1,1)" style="resizable=0;html=1;whiteSpace=wrap;align=right;verticalAlign=bottom;" connectable="0" vertex="1" parent="eMzSvwGJKEWoqzO3pUmx-18">
          <mxGeometry x="1" relative="1" as="geometry">
            <mxPoint x="25" as="offset" />
          </mxGeometry>
        </mxCell>
        <mxCell id="eMzSvwGJKEWoqzO3pUmx-20" value="" style="endArrow=none;html=1;rounded=0;entryX=0.5;entryY=1;entryDx=0;entryDy=0;exitX=0.5;exitY=0;exitDx=0;exitDy=0;" edge="1" parent="1" source="eMzSvwGJKEWoqzO3pUmx-17" target="eMzSvwGJKEWoqzO3pUmx-6">
          <mxGeometry relative="1" as="geometry">
            <mxPoint x="640" y="320" as="sourcePoint" />
            <mxPoint x="800" y="320" as="targetPoint" />
          </mxGeometry>
        </mxCell>
        <mxCell id="eMzSvwGJKEWoqzO3pUmx-21" value="(1,1)" style="resizable=0;html=1;whiteSpace=wrap;align=right;verticalAlign=bottom;" connectable="0" vertex="1" parent="eMzSvwGJKEWoqzO3pUmx-20">
          <mxGeometry x="1" relative="1" as="geometry">
            <mxPoint x="-20" y="20" as="offset" />
          </mxGeometry>
        </mxCell>
        <mxCell id="eMzSvwGJKEWoqzO3pUmx-22" value="Nombre" style="ellipse;whiteSpace=wrap;html=1;align=center;" vertex="1" parent="1">
          <mxGeometry x="314" y="230" width="100" height="40" as="geometry" />
        </mxCell>
        <mxCell id="eMzSvwGJKEWoqzO3pUmx-23" value="Apellido" style="ellipse;whiteSpace=wrap;html=1;align=center;" vertex="1" parent="1">
          <mxGeometry x="330" y="280" width="100" height="40" as="geometry" />
        </mxCell>
        <mxCell id="eMzSvwGJKEWoqzO3pUmx-24" value="ID_programador" style="ellipse;whiteSpace=wrap;html=1;align=center;fontStyle=4;" vertex="1" parent="1">
          <mxGeometry x="380" y="190" width="100" height="40" as="geometry" />
        </mxCell>
        <mxCell id="eMzSvwGJKEWoqzO3pUmx-25" value="Telefono" style="ellipse;whiteSpace=wrap;html=1;align=center;" vertex="1" parent="1">
          <mxGeometry x="500" y="190" width="100" height="40" as="geometry" />
        </mxCell>
        <mxCell id="eMzSvwGJKEWoqzO3pUmx-26" value="Email" style="ellipse;whiteSpace=wrap;html=1;align=center;" vertex="1" parent="1">
          <mxGeometry x="390" y="320" width="100" height="40" as="geometry" />
        </mxCell>
        <mxCell id="eMzSvwGJKEWoqzO3pUmx-27" value="" style="endArrow=none;html=1;rounded=0;exitX=1;exitY=1;exitDx=0;exitDy=0;entryX=0;entryY=0;entryDx=0;entryDy=0;" edge="1" parent="1" source="eMzSvwGJKEWoqzO3pUmx-24" target="eMzSvwGJKEWoqzO3pUmx-2">
          <mxGeometry relative="1" as="geometry">
            <mxPoint x="640" y="220" as="sourcePoint" />
            <mxPoint x="800" y="220" as="targetPoint" />
          </mxGeometry>
        </mxCell>
        <mxCell id="eMzSvwGJKEWoqzO3pUmx-28" value="" style="endArrow=none;html=1;rounded=0;exitX=0.5;exitY=1;exitDx=0;exitDy=0;entryX=0.5;entryY=0;entryDx=0;entryDy=0;" edge="1" parent="1" source="eMzSvwGJKEWoqzO3pUmx-25" target="eMzSvwGJKEWoqzO3pUmx-2">
          <mxGeometry relative="1" as="geometry">
            <mxPoint x="640" y="220" as="sourcePoint" />
            <mxPoint x="800" y="220" as="targetPoint" />
          </mxGeometry>
        </mxCell>
        <mxCell id="eMzSvwGJKEWoqzO3pUmx-29" value="" style="endArrow=none;html=1;rounded=0;exitX=1;exitY=0.5;exitDx=0;exitDy=0;entryX=0;entryY=0.5;entryDx=0;entryDy=0;" edge="1" parent="1" source="eMzSvwGJKEWoqzO3pUmx-22" target="eMzSvwGJKEWoqzO3pUmx-2">
          <mxGeometry relative="1" as="geometry">
            <mxPoint x="640" y="220" as="sourcePoint" />
            <mxPoint x="800" y="220" as="targetPoint" />
          </mxGeometry>
        </mxCell>
        <mxCell id="eMzSvwGJKEWoqzO3pUmx-30" value="" style="endArrow=none;html=1;rounded=0;exitX=1;exitY=0.5;exitDx=0;exitDy=0;entryX=0;entryY=0.75;entryDx=0;entryDy=0;" edge="1" parent="1" source="eMzSvwGJKEWoqzO3pUmx-23" target="eMzSvwGJKEWoqzO3pUmx-2">
          <mxGeometry relative="1" as="geometry">
            <mxPoint x="640" y="220" as="sourcePoint" />
            <mxPoint x="800" y="220" as="targetPoint" />
          </mxGeometry>
        </mxCell>
        <mxCell id="eMzSvwGJKEWoqzO3pUmx-31" value="" style="endArrow=none;html=1;rounded=0;exitX=1;exitY=0;exitDx=0;exitDy=0;entryX=0.25;entryY=1;entryDx=0;entryDy=0;" edge="1" parent="1" source="eMzSvwGJKEWoqzO3pUmx-26" target="eMzSvwGJKEWoqzO3pUmx-2">
          <mxGeometry relative="1" as="geometry">
            <mxPoint x="640" y="220" as="sourcePoint" />
            <mxPoint x="800" y="220" as="targetPoint" />
          </mxGeometry>
        </mxCell>
        <mxCell id="eMzSvwGJKEWoqzO3pUmx-32" value="Nombre" style="ellipse;whiteSpace=wrap;html=1;align=center;" vertex="1" parent="1">
          <mxGeometry x="820" y="180" width="100" height="40" as="geometry" />
        </mxCell>
        <mxCell id="eMzSvwGJKEWoqzO3pUmx-33" value="ID_proyecto" style="ellipse;whiteSpace=wrap;html=1;align=center;fontStyle=4;" vertex="1" parent="1">
          <mxGeometry x="940" y="210" width="100" height="40" as="geometry" />
        </mxCell>
        <mxCell id="eMzSvwGJKEWoqzO3pUmx-34" value="Nombre" style="ellipse;whiteSpace=wrap;html=1;align=center;" vertex="1" parent="1">
          <mxGeometry x="550" y="470" width="100" height="40" as="geometry" />
        </mxCell>
        <mxCell id="eMzSvwGJKEWoqzO3pUmx-35" value="" style="endArrow=none;html=1;rounded=0;exitX=1;exitY=0;exitDx=0;exitDy=0;entryX=0.25;entryY=1;entryDx=0;entryDy=0;" edge="1" parent="1" source="eMzSvwGJKEWoqzO3pUmx-34" target="eMzSvwGJKEWoqzO3pUmx-4">
          <mxGeometry relative="1" as="geometry">
            <mxPoint x="640" y="320" as="sourcePoint" />
            <mxPoint x="800" y="320" as="targetPoint" />
          </mxGeometry>
        </mxCell>
        <mxCell id="eMzSvwGJKEWoqzO3pUmx-36" value="ID_tutor" style="ellipse;whiteSpace=wrap;html=1;align=center;fontStyle=4;" vertex="1" parent="1">
          <mxGeometry x="710" y="470" width="100" height="40" as="geometry" />
        </mxCell>
        <mxCell id="eMzSvwGJKEWoqzO3pUmx-37" value="" style="endArrow=none;html=1;rounded=0;exitX=0.5;exitY=1;exitDx=0;exitDy=0;entryX=0;entryY=0;entryDx=0;entryDy=0;" edge="1" parent="1" source="eMzSvwGJKEWoqzO3pUmx-4" target="eMzSvwGJKEWoqzO3pUmx-36">
          <mxGeometry relative="1" as="geometry">
            <mxPoint x="640" y="320" as="sourcePoint" />
            <mxPoint x="800" y="320" as="targetPoint" />
          </mxGeometry>
        </mxCell>
        <mxCell id="eMzSvwGJKEWoqzO3pUmx-38" value="" style="endArrow=none;html=1;rounded=0;entryX=0;entryY=1;entryDx=0;entryDy=0;exitX=0.25;exitY=0;exitDx=0;exitDy=0;" edge="1" parent="1" source="eMzSvwGJKEWoqzO3pUmx-6" target="eMzSvwGJKEWoqzO3pUmx-32">
          <mxGeometry relative="1" as="geometry">
            <mxPoint x="640" y="320" as="sourcePoint" />
            <mxPoint x="800" y="320" as="targetPoint" />
          </mxGeometry>
        </mxCell>
        <mxCell id="eMzSvwGJKEWoqzO3pUmx-39" value="" style="endArrow=none;html=1;rounded=0;entryX=0;entryY=1;entryDx=0;entryDy=0;exitX=1;exitY=0;exitDx=0;exitDy=0;" edge="1" parent="1" source="eMzSvwGJKEWoqzO3pUmx-6" target="eMzSvwGJKEWoqzO3pUmx-33">
          <mxGeometry relative="1" as="geometry">
            <mxPoint x="640" y="320" as="sourcePoint" />
            <mxPoint x="800" y="320" as="targetPoint" />
          </mxGeometry>
        </mxCell>
      </root>
    </mxGraphModel>
  </diagram>
</mxfile>
